<svg width="24" height="24" viewBox="0 0 24 24" fill="none" xmlns="http://www.w3.org/2000/svg">
<path fill-rule="evenodd" clip-rule="evenodd" d="M3.93994 7.07439C3.93994 4.72336 3.96511 3.93994 7.07439 3.93994C10.1837 3.93994 10.2088 4.72336 10.2088 7.07439C10.2088 9.42541 10.2187 10.2088 7.07439 10.2088C3.93003 10.2088 3.93994 9.42541 3.93994 7.07439Z" fill="#101820" stroke="black" stroke-width="1.5" stroke-linecap="round" stroke-linejoin="round"/>
<path fill-rule="evenodd" clip-rule="evenodd" d="M14.7091 9.29085C13.0466 7.62842 12.5105 7.05666 14.7091 4.85808C16.9076 2.65949 17.4794 3.19565 19.1418 4.85808C20.8043 6.5205 21.3652 7.06745 19.1418 9.29085C16.9184 11.5142 16.3715 10.9533 14.7091 9.29085Z" fill="#101820" stroke="black" stroke-width="1.5" stroke-linecap="round" stroke-linejoin="round"/>
<path fill-rule="evenodd" clip-rule="evenodd" d="M3.93994 16.9255C3.93994 14.5744 3.96511 13.791 7.07439 13.791C10.1837 13.791 10.2088 14.5744 10.2088 16.9255C10.2088 19.2765 10.2187 20.0599 7.07439 20.0599C3.93003 20.0599 3.93994 19.2765 3.93994 16.9255Z" fill="#101820" stroke="black" stroke-width="1.5" stroke-linecap="round" stroke-linejoin="round"/>
<path fill-rule="evenodd" clip-rule="evenodd" d="M13.791 16.9255C13.791 14.5744 13.8162 13.791 16.9255 13.791C20.0347 13.791 20.0599 14.5744 20.0599 16.9255C20.0599 19.2765 20.0698 20.0599 16.9255 20.0599C13.7811 20.0599 13.791 19.2765 13.791 16.9255Z" fill="#101820" stroke="black" stroke-width="1.5" stroke-linecap="round" stroke-linejoin="round"/>
</svg>
