<svg width="24" height="24" viewBox="0 0 24 24" fill="none" xmlns="http://www.w3.org/2000/svg">
<path fill-rule="evenodd" clip-rule="evenodd" d="M1.89847 1.88928C1.95968 1.47961 2.34139 1.19713 2.75106 1.25833L2.64024 2.0001C2.75106 1.25833 2.75106 1.25833 2.75106 1.25833L2.75248 1.25855L2.75413 1.2588L2.75809 1.25941L2.76863 1.26111L2.79983 1.2665C2.82497 1.27103 2.8587 1.27752 2.8998 1.28638C2.98181 1.30406 3.09429 1.33141 3.22713 1.37182C3.48998 1.45177 3.8475 1.58736 4.20963 1.81099C4.94899 2.26757 5.72788 3.11595 5.69791 4.53208C5.701 4.66427 5.70231 4.79824 5.70206 4.93371C9.94806 3.73945 14.5978 3.46069 16.7678 3.50807C17.9948 3.53486 18.9551 3.76816 19.7217 4.24725C20.4937 4.72974 20.989 5.41145 21.3734 6.18027C22.0278 7.48903 22.2421 9.62356 22.0658 11.599C21.9762 12.604 21.7822 13.6116 21.468 14.5008C21.1572 15.3803 20.7087 16.2009 20.0736 16.7687C19.4174 17.3555 18.356 17.7371 17.2194 17.9823C16.0509 18.2342 14.6809 18.3667 13.2997 18.3778C11.9179 18.3888 10.5019 18.2785 9.24093 18.0336C7.99646 17.7919 6.83226 17.406 6.00986 16.8206C4.20962 15.5385 3.87749 13.2244 3.88198 11.0459C3.88416 9.98555 3.96834 8.87744 4.04838 7.82372C4.05282 7.76528 4.05725 7.70701 4.06165 7.64892C4.10667 7.05446 4.14872 6.48033 4.17487 5.93349C4.17515 5.92177 4.1757 5.91008 4.17652 5.89844C4.19851 5.42724 4.20842 4.9765 4.19793 4.55069C4.19761 4.53793 4.19762 4.52516 4.19796 4.5124C4.2178 3.76175 3.84679 3.34989 3.42149 3.08725C3.19956 2.9502 2.96941 2.86128 2.79062 2.80689C2.70264 2.78013 2.6308 2.76285 2.58369 2.7527C2.56024 2.74764 2.54322 2.74442 2.53374 2.74271L2.52555 2.74128C2.11797 2.67826 1.83746 2.29766 1.89847 1.88928ZM5.64539 6.51226C5.62009 6.92683 5.58891 7.34565 5.55736 7.76219C5.55338 7.81475 5.5494 7.86728 5.54541 7.91979C5.46428 8.98875 5.38404 10.0459 5.38197 11.0489C5.37751 13.2132 5.74607 14.7911 6.8797 15.5986C7.44584 16.0016 8.36472 16.3354 9.52688 16.5611C10.6726 16.7836 11.9868 16.8882 13.2877 16.8778C14.5893 16.8674 15.8546 16.7421 16.9032 16.516C17.9835 16.283 18.7207 15.9663 19.0737 15.6506C19.4483 15.3157 19.7871 14.7555 20.0537 14.001C20.3169 13.2561 20.4905 12.3764 20.5718 11.4658C20.7373 9.61001 20.5063 7.80012 20.0317 6.85109C19.7198 6.22719 19.3839 5.805 18.9267 5.51927C18.4641 5.23014 17.797 5.0309 16.7351 5.00771C14.585 4.96077 9.82251 5.25653 5.64539 6.51226Z" fill="currentColor"/>
<path fill-rule="evenodd" clip-rule="evenodd" d="M4.92477 5.95112C9.31673 4.53307 14.4624 4.2078 16.7513 4.25778C19.0403 4.30776 20.0061 5.12285 20.7025 6.51557C21.8314 8.77336 21.5932 14.4044 19.5736 16.2095C17.5551 18.0146 9.22177 18.1862 6.44468 16.2095C3.51069 14.1199 5.04356 8.42566 4.9476 4.5321C5.00518 2.35334 5 4.00002 5 4.00002M12.6143 9.90224C12.6143 9.48803 12.95 9.15224 13.3643 9.15224H16.4947C16.9089 9.15224 17.2447 9.48803 17.2447 9.90224C17.2447 10.3165 16.9089 10.6522 16.4947 10.6522H13.3643C12.95 10.6522 12.6143 10.3165 12.6143 9.90224Z" fill="currentColor"/>
<path fill-rule="evenodd" clip-rule="evenodd" d="M6.88917 20.7708C7.22784 20.7708 7.50329 21.0462 7.50329 21.3849C7.50329 21.7247 7.22784 22.0001 6.88917 22.0001C6.54938 22.0001 6.27393 21.7247 6.27393 21.3849C6.27393 21.0462 6.54938 20.7708 6.88917 20.7708Z" fill="currentColor" stroke="currentColor" stroke-width="1.5" stroke-linecap="round" stroke-linejoin="round"/>
<path fill-rule="evenodd" clip-rule="evenodd" d="M18.5511 20.7708C18.8909 20.7708 19.1664 21.0462 19.1664 21.3849C19.1664 21.7247 18.8909 22.0001 18.5511 22.0001C18.2125 22.0001 17.937 21.7247 17.937 21.3849C17.937 21.0462 18.2125 20.7708 18.5511 20.7708Z" fill="currentColor" stroke="currentColor" stroke-width="1.5" stroke-linecap="round" stroke-linejoin="round"/>
</svg>
