<svg width="24" height="24" viewBox="0 0 24 24" fill="none" xmlns="http://www.w3.org/2000/svg">
<path d="M4.92476 5.95113C9.31672 4.53308 14.4624 4.20781 16.7513 4.25779C19.0403 4.30777 20.0061 5.12286 20.7024 6.51558C21.8313 8.77337 21.5931 14.4044 19.5736 16.2095C17.5551 18.0146 9.22176 18.1862 6.44468 16.2095C3.51068 14.1199 5.04355 8.42567 4.9476 4.53211C5.00517 2.35334 2.64014 2 2.64014 2" stroke="currentColor" stroke-width="1.5" stroke-linecap="round" stroke-linejoin="round"/>
<path d="M13.3643 9.90234H16.4947" stroke="currentColor" stroke-width="1.5" stroke-linecap="round" stroke-linejoin="round"/>
<path fill-rule="evenodd" clip-rule="evenodd" d="M6.88917 20.7705C7.22784 20.7705 7.50329 21.046 7.50329 21.3846C7.50329 21.7244 7.22784 21.9999 6.88917 21.9999C6.54938 21.9999 6.27393 21.7244 6.27393 21.3846C6.27393 21.046 6.54938 20.7705 6.88917 20.7705Z" fill="currentColor" stroke="currentColor" stroke-width="1.5" stroke-linecap="round" stroke-linejoin="round"/>
<path fill-rule="evenodd" clip-rule="evenodd" d="M18.5516 20.7705C18.8914 20.7705 19.1669 21.046 19.1669 21.3846C19.1669 21.7244 18.8914 21.9999 18.5516 21.9999C18.213 21.9999 17.9375 21.7244 17.9375 21.3846C17.9375 21.046 18.213 20.7705 18.5516 20.7705Z" fill="currentColor" stroke="currentColor" stroke-width="1.5" stroke-linecap="round" stroke-linejoin="round"/>
</svg>
