<svg width="24" height="24" viewBox="0 0 24 24" fill="none" xmlns="http://www.w3.org/2000/svg">
<path d="M8.22222 7.57895V10.2632M20 16.8704L19.5034 13.76C19.1821 11.7477 17.398 10.2632 15.3008 10.2632H8.65806C6.54049 10.2632 4.74554 11.7759 4.44759 13.8117L4 16.8704M20 16.8704H4M20 16.8704V18.3158C20 19.7982 18.8061 21 17.3333 21H6.66667C5.19391 21 4 19.7982 4 18.3158V16.8704M6.66667 7.57895H11.1111C12.093 7.57895 12.8889 6.77777 12.8889 5.78947C12.8889 4.80117 12.093 4 11.1111 4H6.66667C5.68483 4 4.88889 4.80117 4.88889 5.78947C4.88889 6.77777 5.68483 7.57895 6.66667 7.57895Z" stroke="currentColor" stroke-width="1.5"/>
<path d="M13.3045 12.6278H13.3124" stroke="currentColor" stroke-width="1.5" stroke-linecap="round" stroke-linejoin="round"/>
<path d="M15.9212 12.6278H15.9291" stroke="currentColor" stroke-width="1.5" stroke-linecap="round" stroke-linejoin="round"/>
<path d="M10.6876 12.6278H10.6954" stroke="currentColor" stroke-width="1.5" stroke-linecap="round" stroke-linejoin="round"/>
<path d="M12 14.8083H12.0079" stroke="currentColor" stroke-width="1.5" stroke-linecap="round" stroke-linejoin="round"/>
<path d="M9.3833 14.8083H9.3912" stroke="currentColor" stroke-width="1.5" stroke-linecap="round" stroke-linejoin="round"/>
<path d="M14.6167 14.8083H14.6246" stroke="currentColor" stroke-width="1.5" stroke-linecap="round" stroke-linejoin="round"/>
<path d="M8.07088 12.6278H8.07873" stroke="currentColor" stroke-width="1.5" stroke-linecap="round" stroke-linejoin="round"/>
</svg>
