<svg width="24" height="24" viewBox="0 0 24 24" fill="none" xmlns="http://www.w3.org/2000/svg">
<path d="M17.3834 7.21981C17.1549 6.91387 16.9017 6.62052 16.6237 6.34251C13.5034 3.2218 8.43377 3.2218 5.3134 6.34331C2.86904 8.78714 2.34013 12.4079 3.71062 15.3694C3.88665 15.8075 4.0233 16.1596 4.0233 16.5005C4.0233 17.4555 3.10214 18.638 3.71625 19.2522C4.33035 19.8656 5.51194 18.9451 6.46123 18.9395C6.80205 18.9395 7.16054 19.0818 7.59781 19.2578C8.46108 19.6571 9.3802 19.8951 10.3098 19.9714" stroke="currentColor" stroke-width="1.5" stroke-linecap="round" stroke-linejoin="round"/>
<path fill-rule="evenodd" clip-rule="evenodd" d="M12.6617 18.5622C14.1599 20.0605 16.3783 20.3842 18.1937 19.5446C18.4617 19.4367 18.6814 19.3495 18.8903 19.3495C19.4721 19.353 20.1963 19.9171 20.5727 19.5412C20.9491 19.1648 20.3845 18.44 20.3845 17.8547C20.3845 17.6457 20.4683 17.4299 20.5762 17.1614C21.4162 15.3463 21.092 13.1271 19.5938 11.6293C17.6813 9.7161 14.5742 9.7161 12.6617 11.6288C10.7458 13.5449 10.7492 16.6495 12.6617 18.5622Z" stroke="currentColor" stroke-width="1.5" stroke-linecap="round" stroke-linejoin="round"/>
</svg>
