<svg width="24" height="24" viewBox="0 0 24 24" fill="none" xmlns="http://www.w3.org/2000/svg">
<rect width="24" height="24" fill="white"/>
<mask id="path-1-inside-1_11529_74023" fill="white">
<path d="M3 12C3 7.02944 7.02944 3 12 3C16.9706 3 21 7.02944 21 12C21 16.9706 16.9706 21 12 21H3.17822C3.07979 21 3 20.9202 3 20.8218V12Z"/>
</mask>
<path d="M3 12C3 7.02944 7.02944 3 12 3C16.9706 3 21 7.02944 21 12C21 16.9706 16.9706 21 12 21H3.17822C3.07979 21 3 20.9202 3 20.8218V12Z" stroke="currentColor" stroke-width="3" mask="url(#path-1-inside-1_11529_74023)"/>
</svg>
