<svg width="24" height="24" viewBox="0 0 24 24" fill="none" xmlns="http://www.w3.org/2000/svg">
<path d="M13.83 21H7.27679C5.46707 21 4 19.5991 4 17.8709V6.1329C4 3.83433 6.50847 2.32025 8.68272 3.30647L18.1289 7.59116C19.461 8.19538 20.2063 9.57489 19.9499 10.9617M13.83 21V17.7847C13.83 16.6801 12.9346 15.7847 11.83 15.7847H11.4609C10.3564 15.7847 9.46094 16.6801 9.46094 17.7847V20.9998L13.83 21Z" stroke="currentColor" stroke-width="1.5" stroke-linecap="round" stroke-linejoin="round"/>
<path d="M16.2392 19.3202C16.1948 19.0541 16.2599 18.7813 16.4196 18.5638L19.7319 14.0536C20.0588 13.6085 20.6847 13.5127 21.1298 13.8396L21.957 14.447C22.4021 14.774 22.4979 15.3998 22.171 15.845L18.8587 20.3552C18.699 20.5726 18.4582 20.7163 18.1909 20.7536L16.5172 20.9872L16.2392 19.3202Z" stroke="currentColor" stroke-width="1.5" stroke-linejoin="round"/>
</svg>
