<svg width="24" height="24" viewBox="0 0 24 24" fill="none" xmlns="http://www.w3.org/2000/svg">
<path d="M8.63614 21.5618H4.68123C3.42264 21.5618 2.40234 20.5517 2.40234 19.3057V13.5873C2.40719 13.0967 2.64005 12.6356 3.03361 12.3374L7.33256 8.88768C8.08901 8.28809 9.16433 8.28809 9.92077 8.88768L14.2387 12.3312C14.6307 12.6306 14.8632 13.0909 14.8699 13.5811V19.3057C14.8699 20.5517 13.8496 21.5618 12.591 21.5618H8.63614ZM8.63614 21.5618V18.1985" stroke="#130F26" stroke-width="1.5" stroke-linecap="round" stroke-linejoin="round"/>
<path d="M11.4023 5.51013V5.43799C11.4023 3.78113 12.7455 2.43799 14.4023 2.43799H18.5976C20.2545 2.43799 21.5976 3.78113 21.5976 5.43799V18.4248C21.5976 20.0817 20.2545 21.4248 18.5976 21.4248H18.0723" stroke="currentColor" stroke-width="1.5" stroke-linecap="round"/>
<path d="M18.5571 6.66109H18.5649" stroke="currentColor" stroke-width="1.5" stroke-linecap="round" stroke-linejoin="round"/>
<path d="M18.5571 11.5036H18.5649" stroke="currentColor" stroke-width="1.5" stroke-linecap="round" stroke-linejoin="round"/>
<path d="M18.5571 16.3464H18.5649" stroke="currentColor" stroke-width="1.5" stroke-linecap="round" stroke-linejoin="round"/>
<path d="M15.1784 6.66109H15.1863" stroke="currentColor" stroke-width="1.5" stroke-linecap="round" stroke-linejoin="round"/>
</svg>
