<svg width="24" height="24" viewBox="0 0 24 24" fill="none" xmlns="http://www.w3.org/2000/svg">
<path d="M11.9844 20.9968C9.03982 20.9968 6.09452 20.9948 3.1499 21C2.87347 21 2.60741 20.9794 2.34965 20.8833C2.0131 20.7575 1.7035 20.5995 1.46923 20.3292C1.35175 20.1938 1.29094 20.0319 1.19419 19.89C1.0774 19.7178 1.09468 19.5172 1.01659 19.3398C0.997927 19.2973 1.00346 19.2444 1.00346 19.196C1.00346 15.359 1.00346 11.5221 1.00276 7.68575C1.00138 6.51319 1 5.34126 1 4.16999C1 3.90297 1.10504 3.66884 1.27228 3.45729C1.49964 3.16963 1.80716 3.02128 2.18725 3.0058C2.33375 3 2.48026 3.00193 2.62676 3.00193C3.47193 3.00129 4.31641 3.00258 5.16089 3C5.34817 3 5.53683 3.0187 5.69715 3.09675C5.88996 3.19091 6.07102 3.30765 6.2037 3.48502C6.37301 3.71141 6.44419 3.95972 6.44558 4.22675C6.45041 5.33159 6.44972 6.43579 6.44972 7.54063C6.44972 8.41716 6.44972 9.29303 6.44972 10.1696C6.44972 10.3173 6.52781 10.3618 6.66948 10.2908C6.93692 10.1573 7.20367 10.0225 7.46973 9.88641C7.75859 9.73936 8.04539 9.58779 8.33632 9.44331C8.71779 9.25305 9.10271 9.06923 9.48349 8.87896C9.68251 8.77963 9.87601 8.67063 10.0737 8.56808C10.169 8.51842 10.2672 8.47456 10.3632 8.42748C10.7032 8.26107 11.0446 8.09725 11.3825 7.92633C11.6292 7.80185 11.8677 7.66447 12.1144 7.53999C12.3507 7.42067 12.5933 7.31102 12.8324 7.19622C13.0003 7.11559 13.1662 7.03046 13.3362 6.95306C13.5628 6.84922 13.8019 6.84857 14.0307 6.92984C14.2871 7.02078 14.5137 7.16074 14.6285 7.4097C14.6665 7.49162 14.7024 7.58256 14.7031 7.66963C14.7079 8.45134 14.7045 9.2337 14.7052 10.0154C14.7052 10.0928 14.7086 10.1715 14.7183 10.2482C14.7252 10.3031 14.7452 10.3392 14.8268 10.3166C15.0044 10.2669 15.1564 10.1747 15.3161 10.0922C15.5268 9.9838 15.7424 9.88254 15.9539 9.77548C16.278 9.61165 16.6001 9.44396 16.9255 9.28142C17.1909 9.1492 17.4618 9.02601 17.7272 8.89379C18.0478 8.73448 18.3643 8.56744 18.6836 8.40684C19.0271 8.23463 19.3726 8.06629 19.7161 7.89408C20.112 7.69543 20.5066 7.49355 20.9033 7.29554C21.1507 7.17171 21.396 7.04207 21.6517 6.935C21.9026 6.83051 22.1603 6.84599 22.4043 6.97499C22.4319 6.98918 22.4582 7.00724 22.4872 7.0182C22.7422 7.11688 22.8749 7.31425 22.9599 7.54321C22.991 7.62706 22.9972 7.72252 22.9972 7.81217C22.9986 10.4301 22.9979 13.0481 22.9972 15.666C22.9972 16.8193 22.9938 17.9725 23 19.1251C23.0014 19.4256 22.9025 19.6952 22.7595 19.9532C22.6717 20.1119 22.5736 20.2712 22.4485 20.4034C22.331 20.5272 22.1811 20.6311 22.0284 20.7181C21.7872 20.8562 21.519 20.9387 21.2405 20.9858C21.1707 20.9974 21.0975 20.9948 21.0256 20.9948C18.0119 20.9948 14.9975 20.9948 11.9838 20.9948L11.9844 20.9968Z" fill="currentColor"/>
</svg>
