<svg width="24" height="24" viewBox="0 0 24 24" fill="none" xmlns="http://www.w3.org/2000/svg">
<path d="M11.9859 20.4201C9.30893 20.4201 6.63138 20.4183 3.95445 20.4231C3.70316 20.4231 3.46128 20.4038 3.22695 20.3139C2.921 20.1962 2.63955 20.0483 2.42657 19.7954C2.31977 19.6686 2.26449 19.5171 2.17654 19.3843C2.07036 19.2231 2.08607 19.0354 2.01508 18.8694C1.99812 18.8295 2.00314 18.78 2.00314 18.7348C2.00314 15.1438 2.00314 11.5527 2.00251 7.96231C2.00126 6.8649 2 5.7681 2 4.6719C2 4.42199 2.09549 4.20287 2.24753 4.00488C2.45422 3.73566 2.73378 3.59682 3.07931 3.58234C3.2125 3.5769 3.34569 3.57872 3.47887 3.57872C4.24721 3.57811 5.01492 3.57932 5.78263 3.5769C5.95288 3.5769 6.12439 3.59441 6.27014 3.66745C6.44542 3.75558 6.61002 3.86484 6.73064 4.03084C6.88456 4.24271 6.94927 4.47511 6.95052 4.72502C6.95492 5.75904 6.95429 6.79247 6.95429 7.82649C6.95429 8.64683 6.95429 9.46657 6.95429 10.2869C6.95429 10.4251 7.02528 10.4668 7.15407 10.4004C7.3972 10.2754 7.6397 10.1493 7.88157 10.0219C8.14418 9.88428 8.4049 9.74243 8.66938 9.60722C9.01617 9.42914 9.3661 9.25711 9.71226 9.07903C9.89319 8.98608 10.0691 8.88406 10.2488 8.78808C10.3355 8.7416 10.4247 8.70056 10.512 8.65649C10.8211 8.50075 11.1315 8.34743 11.4387 8.18747C11.6629 8.07096 11.8797 7.94239 12.104 7.82589C12.3188 7.71422 12.5393 7.6116 12.7567 7.50415C12.9094 7.4287 13.0601 7.34902 13.2147 7.27658C13.4208 7.1794 13.6381 7.17879 13.8461 7.25485C14.0791 7.33996 14.2852 7.47095 14.3895 7.70396C14.4241 7.78062 14.4567 7.86573 14.4573 7.94722C14.4617 8.67882 14.4586 9.41103 14.4592 10.1426C14.4592 10.2151 14.4624 10.2887 14.4712 10.3606C14.4775 10.4119 14.4957 10.4457 14.5698 10.4245C14.7313 10.3781 14.8695 10.2917 15.0146 10.2145C15.2062 10.1131 15.4022 10.0183 15.5945 9.91809C15.8891 9.76476 16.1819 9.60782 16.4778 9.4557C16.719 9.33196 16.9653 9.21666 17.2065 9.09292C17.498 8.94382 17.7858 8.78748 18.076 8.63717C18.3882 8.476 18.7024 8.31845 19.0146 8.15728C19.3746 7.97136 19.7333 7.78243 20.0939 7.59711C20.3188 7.48121 20.5418 7.35988 20.7743 7.25968C21.0023 7.16189 21.2367 7.17638 21.4584 7.29711C21.4836 7.31039 21.5074 7.32729 21.5338 7.33755C21.7657 7.4299 21.8863 7.61462 21.9635 7.82891C21.9918 7.90738 21.9975 7.99672 21.9975 8.08062C21.9987 10.5308 21.9981 12.9809 21.9975 15.4311C21.9975 16.5104 21.9943 17.5897 22 18.6684C22.0012 18.9497 21.9114 19.202 21.7814 19.4434C21.7016 19.5919 21.6124 19.741 21.4987 19.8648C21.3919 19.9807 21.2555 20.0779 21.1167 20.1594C20.8974 20.2885 20.6537 20.3658 20.4005 20.4099C20.337 20.4207 20.2704 20.4183 20.2051 20.4183C17.4654 20.4183 14.725 20.4183 11.9852 20.4183L11.9859 20.4201Z" stroke="currentColor" stroke-width="1.6"/>
</svg>
