<svg width="24" height="24" viewBox="0 0 24 24" fill="none" xmlns="http://www.w3.org/2000/svg">
<path d="M8.89672 3.34668H6.67773C5.26352 3.34668 4.55641 3.34668 4.11707 3.78602C3.67773 4.22536 3.67773 4.93247 3.67773 6.34668V9.14525M3.67773 14.8994V17.6533C3.67773 19.0675 3.67773 19.7746 4.11707 20.214C4.55641 20.6533 5.26352 20.6533 6.67773 20.6533H9.20896M14.7624 20.6533H17.3159C18.7301 20.6533 19.4372 20.6533 19.8766 20.214C20.3159 19.7746 20.3159 19.0675 20.3159 17.6533V14.8994M20.3159 9.14525V6.34668C20.3159 4.93247 20.3159 4.22536 19.8766 3.78602C19.4372 3.34668 18.7301 3.34668 17.3159 3.34668H14.6063" stroke="currentColor" stroke-width="1.5" stroke-linecap="round" stroke-linejoin="round"/>
</svg>
