<svg width="24" height="24" viewBox="0 0 24 24" fill="none" xmlns="http://www.w3.org/2000/svg">
<path d="M15 9L12.5 11.5M15 9V6L18 3V6H21L18 9H15Z" stroke="currentColor" stroke-width="1.25" stroke-linecap="round" stroke-linejoin="round"/>
<path d="M12.33 3H12C10.22 3 8.47991 3.52784 6.99987 4.51677C5.51983 5.50571 4.36628 6.91131 3.68509 8.55585C3.0039 10.2004 2.82567 12.01 3.17294 13.7558C3.5202 15.5016 4.37737 17.1053 5.63604 18.364C6.89472 19.6226 8.49836 20.4798 10.2442 20.8271C11.99 21.1743 13.7996 20.9961 15.4442 20.3149C17.0887 19.6337 18.4943 18.4802 19.4832 17.0001C20.4722 15.5201 21 13.78 21 12C21 11.89 21 11.78 21 11.67" stroke="currentColor" stroke-width="1.25" stroke-linecap="round" stroke-linejoin="round"/>
<path d="M16.9002 13C16.7193 13.8849 16.3021 14.7043 15.6929 15.3711C15.0837 16.0379 14.3053 16.5273 13.4403 16.7872C12.5753 17.0471 11.656 17.0679 10.7802 16.8472C9.90433 16.6266 9.10459 16.1729 8.46593 15.5342C7.82727 14.8956 7.37353 14.0958 7.15291 13.22C6.9323 12.3441 6.95305 11.4249 7.21296 10.5599C7.47286 9.69488 7.96222 8.91644 8.62905 8.30724C9.29588 7.69804 10.1153 7.28085 11.0002 7.09998" stroke="currentColor" stroke-width="1.25" stroke-linecap="round" stroke-linejoin="round"/>
</svg>
