<svg width="24" height="24" viewBox="0 0 24 24" fill="none" xmlns="http://www.w3.org/2000/svg">
<path fill-rule="evenodd" clip-rule="evenodd" d="M19.7498 2C19.7498 1.58579 19.414 1.25 18.9998 1.25C18.5856 1.25 18.2498 1.58579 18.2498 2V2.4227L5.4599 5.80827C3.72366 6.26786 3.72365 8.73214 5.4599 9.19173L18.2498 12.5773V22C18.2498 22.4142 18.5856 22.75 18.9998 22.75C19.414 22.75 19.7498 22.4142 19.7498 22L19.7498 2ZM18.2498 11.0256V3.97436L5.84374 7.25832C5.76409 7.27941 5.72579 7.31483 5.70336 7.34614C5.67673 7.3833 5.65772 7.43708 5.65772 7.5C5.65772 7.56293 5.67673 7.6167 5.70336 7.65386C5.72579 7.68517 5.76409 7.72059 5.84374 7.74168L18.2498 11.0256Z" fill="#101820"/>
<path d="M5.4541 6.5L18.9541 3V12L4.9541 8L5.4541 6.5Z" fill="#101820"/>
</svg>
