<svg width="24" height="24" viewBox="0 0 24 24" fill="none" xmlns="http://www.w3.org/2000/svg">
<g clip-path="url(#clip0_20169_19602)">
<path d="M11.1575 11.463L1.08984 22.0108C1.20289 22.4115 1.40605 22.781 1.68379 23.0911C1.96154 23.4012 2.30651 23.6437 2.69235 23.8001C3.07818 23.9564 3.49465 24.0225 3.90994 23.9932C4.32522 23.964 4.72831 23.8401 5.0884 23.6312L16.4164 17.1795L11.1575 11.463Z" fill="#EA4335"/>
<path d="M21.3376 9.67006L16.4388 6.86432L10.9248 11.7031L16.4613 17.1645L21.3225 14.3888C21.7532 14.1633 22.114 13.8242 22.3657 13.4083C22.6174 12.9924 22.7504 12.5156 22.7504 12.0294C22.7504 11.5433 22.6174 11.0664 22.3657 10.6505C22.114 10.2346 21.7532 9.89555 21.3225 9.67006H21.3376Z" fill="#FBBC04"/>
<path d="M1.09005 1.99554C1.0292 2.22052 0.998916 2.45267 1.00003 2.68573V21.3206C1.00064 21.5536 1.03089 21.7855 1.09005 22.0108L11.5028 11.7331L1.09005 1.99554Z" fill="#4285F4"/>
<path d="M11.2325 12.0032L16.4389 6.86431L5.12591 0.382606C4.70031 0.133346 4.21625 0.00133073 3.72304 5.36551e-06C3.12737 -0.00117508 2.54765 0.192452 2.07225 0.55137C1.59685 0.910289 1.25185 1.41481 1.08984 1.98803L11.2325 12.0032Z" fill="#34A853"/>
</g>
<defs>
<clipPath id="clip0_20169_19602">
<rect width="24" height="24" fill="white"/>
</clipPath>
</defs>
</svg>
