<svg width="24" height="24" viewBox="0 0 24 24" fill="none" xmlns="http://www.w3.org/2000/svg">
<g clip-path="url(#clip0_15957_40572)">
<path d="M13.5449 5.00295C13.0177 5.00295 12.5171 5.00973 12.017 5.00138C11.2981 4.9899 10.8167 4.31879 11.06 3.66437C11.2069 3.2688 11.4997 3.03762 11.9242 3.01101C12.229 2.99222 12.5358 3.00318 12.8421 3.00318C14.5351 3.00318 16.2282 3.00213 17.9212 3.00318C18.4296 3.00318 18.7938 3.24376 18.9417 3.66698C19.1725 4.32661 18.6953 4.99251 17.9748 5.00086C17.2716 5.00921 16.5683 5.00608 15.8651 4.99981C15.7348 4.99877 15.6744 5.03478 15.627 5.16211C13.9262 9.70908 12.2201 14.2545 10.5156 18.8004C10.4953 18.8542 10.4797 18.91 10.4505 18.9977C10.587 18.9977 10.7068 18.9977 10.8261 18.9977C11.2038 18.9977 11.5815 18.9945 11.9591 18.9987C12.5499 19.005 12.9921 19.4303 12.9984 19.9929C13.0047 20.5523 12.565 20.9943 11.9737 20.9959C9.98795 21.0011 8.00164 21.0016 6.01585 20.9959C5.41991 20.9938 4.99535 20.5586 5.00004 19.9876C5.00473 19.4329 5.44075 19.0045 6.02054 18.9992C6.7238 18.993 7.42705 18.994 8.13031 19.0008C8.26054 19.0018 8.32097 18.9658 8.36837 18.8385C10.0692 14.2915 11.7753 9.74613 13.4797 5.20073C13.5001 5.14698 13.5157 5.09114 13.5449 5.00295Z" fill="currentColor"/>
</g>
<defs>
<clipPath id="clip0_15957_40572">
<rect width="14" height="18" fill="white" transform="translate(5 3)"/>
</clipPath>
</defs>
</svg>
