<svg width="24" height="24" viewBox="0 0 24 24" fill="none" xmlns="http://www.w3.org/2000/svg">
<path d="M11.9566 5.05737C12.1352 5.05737 12.2799 4.91262 12.2799 4.73407C12.2799 4.55551 12.1352 4.41077 11.9566 4.41077C11.778 4.41077 11.6333 4.55551 11.6333 4.73407C11.6333 4.91262 11.778 5.05737 11.9566 5.05737Z" fill="#101820"/>
<path d="M10.0855 5.30359C10.2641 5.30359 10.4088 5.15884 10.4088 4.98028C10.4088 4.80173 10.2641 4.65698 10.0855 4.65698C9.90695 4.65698 9.76221 4.80173 9.76221 4.98028C9.76221 5.15884 9.90695 5.30359 10.0855 5.30359Z" fill="#101820"/>
<path d="M8.3399 6.02502C8.51846 6.02502 8.66321 5.88028 8.66321 5.70172C8.66321 5.52317 8.51846 5.37842 8.3399 5.37842C8.16135 5.37842 8.0166 5.52317 8.0166 5.70172C8.0166 5.88028 8.16135 6.02502 8.3399 6.02502Z" fill="#101820"/>
<path d="M6.84723 7.17175C7.02578 7.17175 7.17053 7.027 7.17053 6.84845C7.17053 6.66989 7.02578 6.52515 6.84723 6.52515C6.66867 6.52515 6.52393 6.66989 6.52393 6.84845C6.52393 7.027 6.66867 7.17175 6.84723 7.17175Z" fill="#101820"/>
<path d="M5.70514 8.6676C5.88369 8.6676 6.02844 8.52285 6.02844 8.3443C6.02844 8.16574 5.88369 8.021 5.70514 8.021C5.52658 8.021 5.38184 8.16574 5.38184 8.3443C5.38184 8.52285 5.52658 8.6676 5.70514 8.6676Z" fill="#101820"/>
<path d="M4.98199 10.4098C5.16055 10.4098 5.3053 10.265 5.3053 10.0865C5.3053 9.90793 5.16055 9.76318 4.98199 9.76318C4.80344 9.76318 4.65869 9.90793 4.65869 10.0865C4.65869 10.265 4.80344 10.4098 4.98199 10.4098Z" fill="#101820"/>
<path d="M4.73151 12.2787C4.91006 12.2787 5.05481 12.1339 5.05481 11.9554C5.05481 11.7768 4.91006 11.6321 4.73151 11.6321C4.55295 11.6321 4.4082 11.7768 4.4082 11.9554C4.4082 12.1339 4.55295 12.2787 4.73151 12.2787Z" fill="#101820"/>
<path d="M4.98199 14.1467C5.16055 14.1467 5.3053 14.002 5.3053 13.8234C5.3053 13.6449 5.16055 13.5001 4.98199 13.5001C4.80344 13.5001 4.65869 13.6449 4.65869 13.8234C4.65869 14.002 4.80344 14.1467 4.98199 14.1467Z" fill="#101820"/>
<path d="M5.70514 15.8874C5.88369 15.8874 6.02844 15.7427 6.02844 15.5641C6.02844 15.3856 5.88369 15.2408 5.70514 15.2408C5.52658 15.2408 5.38184 15.3856 5.38184 15.5641C5.38184 15.7427 5.52658 15.8874 5.70514 15.8874Z" fill="#101820"/>
<path d="M6.84723 17.3833C7.02578 17.3833 7.17053 17.2386 7.17053 17.06C7.17053 16.8814 7.02578 16.7367 6.84723 16.7367C6.66867 16.7367 6.52393 16.8814 6.52393 17.06C6.52393 17.2386 6.66867 17.3833 6.84723 17.3833Z" fill="#101820"/>
<path d="M8.3399 18.5316C8.51846 18.5316 8.66321 18.3869 8.66321 18.2083C8.66321 18.0298 8.51846 17.885 8.3399 17.885C8.16135 17.885 8.0166 18.0298 8.0166 18.2083C8.0166 18.3869 8.16135 18.5316 8.3399 18.5316Z" fill="#101820"/>
<path d="M10.0855 19.2513C10.2641 19.2513 10.4088 19.1066 10.4088 18.928C10.4088 18.7495 10.2641 18.6047 10.0855 18.6047C9.90695 18.6047 9.76221 18.7495 9.76221 18.928C9.76221 19.1066 9.90695 19.2513 10.0855 19.2513Z" fill="#101820"/>
<path d="M11.9566 19.4969C12.1352 19.4969 12.2799 19.3522 12.2799 19.1736C12.2799 18.9951 12.1352 18.8503 11.9566 18.8503C11.778 18.8503 11.6333 18.9951 11.6333 19.1736C11.6333 19.3522 11.778 19.4969 11.9566 19.4969Z" fill="#101820"/>
<path d="M13.8218 19.2529C14.0004 19.2529 14.1451 19.1082 14.1451 18.9296C14.1451 18.7511 14.0004 18.6063 13.8218 18.6063C13.6433 18.6063 13.4985 18.7511 13.4985 18.9296C13.4985 19.1082 13.6433 19.2529 13.8218 19.2529Z" fill="#101820"/>
<path d="M15.5645 18.5316C15.7431 18.5316 15.8878 18.3869 15.8878 18.2083C15.8878 18.0298 15.7431 17.885 15.5645 17.885C15.386 17.885 15.2412 18.0298 15.2412 18.2083C15.2412 18.3869 15.386 18.5316 15.5645 18.5316Z" fill="#101820"/>
<path d="M17.0596 17.384C17.2382 17.384 17.3829 17.2393 17.3829 17.0607C17.3829 16.8822 17.2382 16.7374 17.0596 16.7374C16.8811 16.7374 16.7363 16.8822 16.7363 17.0607C16.7363 17.2393 16.8811 17.384 17.0596 17.384Z" fill="#101820"/>
<path d="M18.211 15.8874C18.3896 15.8874 18.5343 15.7427 18.5343 15.5641C18.5343 15.3856 18.3896 15.2408 18.211 15.2408C18.0324 15.2408 17.8877 15.3856 17.8877 15.5641C17.8877 15.7427 18.0324 15.8874 18.211 15.8874Z" fill="#101820"/>
<path d="M18.9249 14.1467C19.1034 14.1467 19.2482 14.002 19.2482 13.8234C19.2482 13.6449 19.1034 13.5001 18.9249 13.5001C18.7463 13.5001 18.6016 13.6449 18.6016 13.8234C18.6016 14.002 18.7463 14.1467 18.9249 14.1467Z" fill="#101820"/>
<path d="M19.1754 12.2778C19.3539 12.2778 19.4987 12.1331 19.4987 11.9545C19.4987 11.776 19.3539 11.6312 19.1754 11.6312C18.9968 11.6312 18.8521 11.776 18.8521 11.9545C18.8521 12.1331 18.9968 12.2778 19.1754 12.2778Z" fill="#101820"/>
<path d="M18.9249 10.4097C19.1034 10.4097 19.2482 10.2649 19.2482 10.0864C19.2482 9.90781 19.1034 9.76306 18.9249 9.76306C18.7463 9.76306 18.6016 9.90781 18.6016 10.0864C18.6016 10.2649 18.7463 10.4097 18.9249 10.4097Z" fill="#101820"/>
<path d="M18.211 8.6676C18.3896 8.6676 18.5343 8.52285 18.5343 8.3443C18.5343 8.16574 18.3896 8.021 18.211 8.021C18.0324 8.021 17.8877 8.16574 17.8877 8.3443C17.8877 8.52285 18.0324 8.6676 18.211 8.6676Z" fill="#101820"/>
<path d="M17.0596 7.17187C17.2382 7.17187 17.3829 7.02713 17.3829 6.84857C17.3829 6.67002 17.2382 6.52527 17.0596 6.52527C16.8811 6.52527 16.7363 6.67002 16.7363 6.84857C16.7363 7.02713 16.8811 7.17187 17.0596 7.17187Z" fill="#101820"/>
<path d="M15.5645 6.02344C15.7431 6.02344 15.8878 5.87869 15.8878 5.70013C15.8878 5.52158 15.7431 5.37683 15.5645 5.37683C15.386 5.37683 15.2412 5.52158 15.2412 5.70013C15.2412 5.87869 15.386 6.02344 15.5645 6.02344Z" fill="#101820"/>
<path d="M13.8218 5.30359C14.0004 5.30359 14.1451 5.15884 14.1451 4.98028C14.1451 4.80173 14.0004 4.65698 13.8218 4.65698C13.6433 4.65698 13.4985 4.80173 13.4985 4.98028C13.4985 5.15884 13.6433 5.30359 13.8218 5.30359Z" fill="#101820"/>
<circle cx="12" cy="12" r="9.25" stroke="#101820" stroke-width="1.5"/>
<path d="M9.08301 14.9166L14.9163 9.08325" stroke="#101820" stroke-width="1.5" stroke-linecap="round" stroke-linejoin="round"/>
<path d="M14.1874 15.4027C14.8586 15.4027 15.4027 14.8586 15.4027 14.1874C15.4027 13.5163 14.8586 12.9722 14.1874 12.9722C13.5163 12.9722 12.9722 13.5163 12.9722 14.1874C12.9722 14.8586 13.5163 15.4027 14.1874 15.4027Z" stroke="#101820" stroke-width="1.5" stroke-linecap="round" stroke-linejoin="round"/>
<path d="M9.81245 11.0277C10.4836 11.0277 11.0277 10.4836 11.0277 9.81245C11.0277 9.14127 10.4836 8.59717 9.81245 8.59717C9.14127 8.59717 8.59717 9.14127 8.59717 9.81245C8.59717 10.4836 9.14127 11.0277 9.81245 11.0277Z" stroke="#101820" stroke-width="1.5" stroke-linecap="round" stroke-linejoin="round"/>
</svg>
