<svg width="24" height="24" viewBox="0 0 24 24" fill="none" xmlns="http://www.w3.org/2000/svg">
<circle cx="12" cy="12" r="10" stroke="#130F26" stroke-width="1.5"/>
<path d="M10.9538 7.21975C11.2831 6.20631 12.7169 6.20631 13.0462 7.21976L13.5491 8.76778C13.6964 9.22101 14.1188 9.52786 14.5953 9.52786H16.223C17.2886 9.52786 17.7316 10.8914 16.8696 11.5178L15.5527 12.4745C15.1672 12.7546 15.0059 13.2511 15.1531 13.7044L15.6561 15.2524C15.9854 16.2658 14.8255 17.1086 13.9634 16.4822L12.6466 15.5255C12.261 15.2454 11.739 15.2454 11.3534 15.5255L10.0366 16.4822C9.17452 17.1086 8.01459 16.2658 8.34388 15.2524L8.84686 13.7044C8.99413 13.2511 8.8328 12.7546 8.44727 12.4745L7.13043 11.5178C6.26835 10.8914 6.7114 9.52786 7.777 9.52786H9.40469C9.88124 9.52786 10.3036 9.22101 10.4509 8.76778L10.9538 7.21975Z" stroke="currentColor" stroke-width="1.5"/>
</svg>
