<svg width="24" height="24" viewBox="0 0 24 24" fill="none" xmlns="http://www.w3.org/2000/svg">
<path fill-rule="evenodd" clip-rule="evenodd" d="M3 12C3 7.03328 6.84316 3 11.88 3C16.9168 3 21 7.02632 21 11.993C21 16.9428 17.183 20.9556 12.1715 20.9829C10.1463 21.0554 9.51927 20.9525 7.56003 19.5661C7.14777 19.3403 6.42502 19.7022 5.66744 20.0816C4.74341 20.5443 3.76756 21.0329 3.24003 20.5128C2.71531 19.9954 3.20396 19.1189 3.67136 18.2806C4.05912 17.5851 4.43226 16.9158 4.20003 16.4996C3.03189 14.5531 3.01763 13.4105 3.00136 12.1071C3.00092 12.0715 3.00047 12.0358 3 12ZM8 14.0263L10.6053 10L12.9737 11.8947L15.8158 10.2368L13.4474 14.7368L11.0789 12.6053L8 14.0263Z" fill="currentColor"/>
</svg>
