<svg width="24" height="24" viewBox="0 0 24 24" fill="none" xmlns="http://www.w3.org/2000/svg">
<path d="M2.58398 15.0806H4.80297C6.21718 15.0806 6.92429 15.0806 7.36363 15.52C7.80297 15.9593 7.80297 16.6664 7.80297 18.0806V20.8792M15.7067 20.8792V18.0806C15.7067 16.6664 15.7067 15.9593 16.1461 15.5199C16.5854 15.0806 17.2925 15.0806 18.7067 15.0806H21.4163M2.58398 8.91945H4.80297C6.21718 8.91945 6.92429 8.91945 7.36363 8.48011C7.80297 8.04077 7.80297 7.33366 7.80297 5.91945V3.12088M15.7067 3.12085V5.91942C15.7067 7.33363 15.7067 8.04074 16.1461 8.48008C16.5854 8.91942 17.2925 8.91942 18.7067 8.91942H21.4163" stroke="currentColor" stroke-width="1.5" stroke-linecap="round" stroke-linejoin="round"/>
</svg>
