<svg width="24" height="24" viewBox="0 0 24 24" fill="none" xmlns="http://www.w3.org/2000/svg">
<circle cx="12" cy="12" r="9.44922" stroke="currentColor" stroke-width="1.57487"/>
<path d="M12.0526 13.6178C12.0526 13.4796 12.0318 13.3557 11.9903 13.2459C11.9522 13.1326 11.8795 13.0298 11.7722 12.9378C11.6649 12.8421 11.5143 12.7483 11.3205 12.6562C11.1267 12.5641 10.8757 12.4685 10.5676 12.3693C10.225 12.256 9.89961 12.1285 9.59155 11.9868C9.28695 11.8451 9.01696 11.6804 8.78159 11.4927C8.54968 11.3015 8.36623 11.0801 8.23123 10.8286C8.0997 10.5772 8.03393 10.285 8.03393 9.95204C8.03393 9.62974 8.10316 9.33754 8.24162 9.07545C8.38007 8.80982 8.57391 8.58315 8.82312 8.39543C9.07234 8.20418 9.36656 8.05719 9.70577 7.95448C10.0484 7.85177 10.424 7.80042 10.8324 7.80042C11.3897 7.80042 11.876 7.90313 12.2914 8.10855C12.7068 8.31397 13.0287 8.59554 13.2571 8.95326C13.3524 9.10015 13.428 9.25571 13.4842 9.41992C13.6223 9.82421 13.2586 10.1805 12.8314 10.1805H12.6757C12.3344 10.1805 12.082 9.88451 11.9176 9.58547C11.8276 9.41192 11.6891 9.27556 11.5022 9.17639C11.3188 9.07722 11.0869 9.02764 10.8065 9.02764C10.5365 9.02764 10.3115 9.07014 10.1315 9.15514C9.95153 9.2366 9.81653 9.34817 9.72654 9.48984C9.63654 9.62797 9.59155 9.78381 9.59155 9.95735C9.59155 10.0884 9.6227 10.207 9.685 10.3133C9.75077 10.4196 9.84769 10.5187 9.97576 10.6108C10.1038 10.7029 10.2613 10.7897 10.4482 10.8711C10.6351 10.9526 10.8515 11.0323 11.0972 11.1102C11.5091 11.2377 11.8708 11.3811 12.1824 11.5405C12.4974 11.6999 12.7604 11.8788 12.9716 12.0771C13.1827 12.2754 13.3419 12.5003 13.4492 12.7518C13.5565 13.0033 13.6102 13.2884 13.6102 13.6071C13.6102 13.9436 13.5461 14.2447 13.4181 14.5103C13.29 14.7759 13.1048 15.0008 12.8625 15.185C12.6202 15.3692 12.3312 15.5091 11.9955 15.6047C11.6597 15.7003 11.2841 15.7481 10.8688 15.7481C10.495 15.7481 10.1263 15.6986 9.76288 15.5994C9.39944 15.4967 9.06888 15.3426 8.7712 15.1372C8.47699 14.9318 8.24162 14.6697 8.06509 14.3509C8.0025 14.2379 7.95101 14.1175 7.91061 13.9898C7.78045 13.5784 8.15014 13.2193 8.58169 13.2193H8.73814C9.08329 13.2193 9.33401 13.514 9.47213 13.8303C9.54482 13.9967 9.64693 14.1313 9.77846 14.234C9.91345 14.3368 10.0727 14.4111 10.2561 14.4572C10.443 14.5032 10.6473 14.5262 10.8688 14.5262C11.1388 14.5262 11.3603 14.4873 11.5334 14.4094C11.7099 14.3314 11.8397 14.2234 11.9228 14.0853C12.0093 13.9472 12.0526 13.7913 12.0526 13.6178Z" fill="currentColor"/>
<path d="M16.5198 7.80042C16.8793 7.80042 17.1335 8.15201 17.0208 8.49333L14.5965 15.8375C14.5252 16.0537 14.3232 16.1997 14.0956 16.1997C13.7361 16.1997 13.4819 15.8481 13.5946 15.5068L16.0189 8.1626C16.0902 7.94643 16.2922 7.80042 16.5198 7.80042Z" fill="currentColor"/>
</svg>
