<svg width="24" height="24" viewBox="0 0 24 24" fill="none" xmlns="http://www.w3.org/2000/svg">
<path fill-rule="evenodd" clip-rule="evenodd" d="M19.6271 13.9624C18.7801 12.0994 18.8021 11.3984 18.8411 10.1244C18.8511 9.82342 18.8611 9.49642 18.8611 9.12142C18.8611 6.14442 16.7321 1.95142 12.0001 1.95142C7.26812 1.95142 5.13912 6.14442 5.13912 9.12142C5.13912 9.49542 5.14912 9.82342 5.15912 10.1244C5.19812 11.3984 5.21912 12.0994 4.36312 13.9874C3.99712 14.9314 4.04112 15.7464 4.49612 16.4104C5.58812 18.0084 8.74812 18.2284 12.0001 18.2284C15.2521 18.2284 18.4121 18.0084 19.5041 16.4104C19.9601 15.7464 20.0041 14.9314 19.6271 13.9624Z" fill="#101820"/>
<path fill-rule="evenodd" clip-rule="evenodd" d="M14.6974 19.2407C13.0664 19.4217 11.2984 19.4207 9.28841 19.2387C8.98741 19.2147 8.68941 19.3737 8.55141 19.6487C8.41241 19.9247 8.45641 20.2557 8.66141 20.4857C9.56141 21.4927 10.7454 22.0487 11.9954 22.0487H11.9974C13.2504 22.0487 14.4374 21.4937 15.3394 20.4857C15.5464 20.2547 15.5894 19.9187 15.4474 19.6417C15.3044 19.3667 15.0104 19.2127 14.6974 19.2407Z" fill="#101820"/>
</svg>
