<svg width="24" height="24" viewBox="0 0 24 24" fill="none" xmlns="http://www.w3.org/2000/svg">
<path d="M3.02258 6.8609C3.11463 5.9176 3.87509 5.17952 4.81978 5.10297C10.3188 4.65738 13.9134 4.64144 19.2402 5.09527C20.1805 5.17538 20.9338 5.91273 21.0278 6.85172C21.4055 10.6252 21.4266 13.3177 21.0357 17.1849C20.9391 18.14 20.1594 18.8806 19.2012 18.9397C13.8986 19.2665 10.2249 19.2472 4.88114 18.9348C3.90859 18.8779 3.11914 18.1212 3.02985 17.1511C2.68284 13.3807 2.64859 10.6935 3.02258 6.8609Z" stroke="currentColor" stroke-width="1.5"/>
<rect x="5.99976" y="9.00006" width="3.25" height="6" rx="1" stroke="currentColor" stroke-width="1.5"/>
<path d="M12.7498 9.00006H13.8998C13.955 9.00006 13.9998 9.04483 13.9998 9.10006V14.7001M15.2498 14.7001H12.7498" stroke="currentColor" stroke-width="1.5" stroke-linecap="round"/>
</svg>
