<svg width="44" height="42" viewBox="0 0 44 42" fill="none" xmlns="http://www.w3.org/2000/svg">
<path d="M25 13L22.5 15.5M25 13V10L28 7V10H31L28 13H25Z" stroke="black" stroke-width="1.25" stroke-linecap="round" stroke-linejoin="round"/>
<path d="M22.33 7H22C20.22 7 18.4799 7.52784 16.9999 8.51677C15.5198 9.50571 14.3663 10.9113 13.6851 12.5558C13.0039 14.2004 12.8257 16.01 13.1729 17.7558C13.5202 19.5016 14.3774 21.1053 15.636 22.364C16.8947 23.6226 18.4984 24.4798 20.2442 24.8271C21.99 25.1743 23.7996 24.9961 25.4442 24.3149C27.0887 23.6337 28.4943 22.4802 29.4832 21.0001C30.4722 19.5201 31 17.78 31 16C31 15.89 31 15.78 31 15.67" stroke="black" stroke-width="1.25" stroke-linecap="round" stroke-linejoin="round"/>
<path d="M26.8999 17.0001C26.7191 17.885 26.3019 18.7044 25.6927 19.3712C25.0835 20.0381 24.305 20.5274 23.44 20.7873C22.575 21.0472 21.6558 21.068 20.7799 20.8474C19.9041 20.6268 19.1043 20.173 18.4657 19.5343C17.827 18.8957 17.3733 18.096 17.1527 17.2201C16.9321 16.3443 16.9528 15.425 17.2127 14.56C17.4726 13.695 17.962 12.9166 18.6288 12.3074C19.2956 11.6982 20.115 11.281 20.9999 11.1001" stroke="black" stroke-width="1.25" stroke-linecap="round" stroke-linejoin="round"/>
<path d="M9.7777 33.0909C9.7777 33.7045 9.6669 34.2348 9.44531 34.6818C9.22372 35.1288 8.91974 35.4735 8.53338 35.7159C8.14702 35.9583 7.70573 36.0795 7.20952 36.0795C6.71331 36.0795 6.27202 35.9583 5.88565 35.7159C5.49929 35.4735 5.19531 35.1288 4.97372 34.6818C4.75213 34.2348 4.64134 33.7045 4.64134 33.0909C4.64134 32.4773 4.75213 31.947 4.97372 31.5C5.19531 31.053 5.49929 30.7083 5.88565 30.4659C6.27202 30.2235 6.71331 30.1023 7.20952 30.1023C7.70573 30.1023 8.14702 30.2235 8.53338 30.4659C8.91974 30.7083 9.22372 31.053 9.44531 31.5C9.6669 31.947 9.7777 32.4773 9.7777 33.0909ZM9.09588 33.0909C9.09588 32.5871 9.0116 32.1619 8.84304 31.8153C8.67637 31.4688 8.45005 31.2064 8.16406 31.0284C7.87997 30.8504 7.56179 30.7614 7.20952 30.7614C6.85724 30.7614 6.53812 30.8504 6.25213 31.0284C5.96804 31.2064 5.74171 31.4688 5.57315 31.8153C5.40649 32.1619 5.32315 32.5871 5.32315 33.0909C5.32315 33.5947 5.40649 34.0199 5.57315 34.3665C5.74171 34.7131 5.96804 34.9754 6.25213 35.1534C6.53812 35.3314 6.85724 35.4205 7.20952 35.4205C7.56179 35.4205 7.87997 35.3314 8.16406 35.1534C8.45005 34.9754 8.67637 34.7131 8.84304 34.3665C9.0116 34.0199 9.09588 33.5947 9.09588 33.0909ZM10.9624 36V30.1818H11.6328V32.3295H11.6896C11.7389 32.2538 11.8071 32.1572 11.8942 32.0398C11.9832 31.9205 12.1101 31.8144 12.2749 31.7216C12.4415 31.6269 12.6669 31.5795 12.951 31.5795C13.3184 31.5795 13.6423 31.6714 13.9226 31.8551C14.2029 32.0388 14.4216 32.2992 14.5788 32.6364C14.736 32.9735 14.8146 33.3712 14.8146 33.8295C14.8146 34.2917 14.736 34.6922 14.5788 35.0312C14.4216 35.3684 14.2038 35.6297 13.9254 35.8153C13.647 35.9991 13.326 36.0909 12.9624 36.0909C12.6821 36.0909 12.4576 36.0445 12.2891 35.9517C12.1205 35.857 11.9908 35.75 11.8999 35.6307C11.8089 35.5095 11.7389 35.4091 11.6896 35.3295H11.6101V36H10.9624ZM11.6214 33.8182C11.6214 34.1477 11.6697 34.4384 11.7663 34.6903C11.8629 34.9403 12.004 35.1364 12.1896 35.2784C12.3752 35.4186 12.6025 35.4886 12.8714 35.4886C13.1518 35.4886 13.3857 35.4148 13.5732 35.267C13.7625 35.1174 13.9046 34.9167 13.9993 34.6648C14.0959 34.411 14.1442 34.1288 14.1442 33.8182C14.1442 33.5114 14.0968 33.2348 14.0021 32.9886C13.9093 32.7405 13.7682 32.5445 13.5788 32.4006C13.3913 32.2547 13.1555 32.1818 12.8714 32.1818C12.5987 32.1818 12.3696 32.2509 12.1839 32.3892C11.9983 32.5256 11.8582 32.7169 11.7635 32.9631C11.6688 33.2074 11.6214 33.4924 11.6214 33.8182ZM15.8402 31.6364H16.5107V36.3182C16.5107 36.5871 16.4643 36.8201 16.3714 37.017C16.2805 37.214 16.1423 37.3665 15.9567 37.4744C15.773 37.5824 15.541 37.6364 15.2607 37.6364C15.2379 37.6364 15.2152 37.6364 15.1925 37.6364C15.1697 37.6364 15.147 37.6364 15.1243 37.6364V37.0114C15.147 37.0114 15.1679 37.0114 15.1868 37.0114C15.2057 37.0114 15.2266 37.0114 15.2493 37.0114C15.4538 37.0114 15.6035 36.9508 15.6982 36.8295C15.7929 36.7102 15.8402 36.5398 15.8402 36.3182V31.6364ZM16.1697 30.9091C16.0391 30.9091 15.9264 30.8646 15.8317 30.7756C15.7389 30.6866 15.6925 30.5795 15.6925 30.4545C15.6925 30.3295 15.7389 30.2225 15.8317 30.1335C15.9264 30.0445 16.0391 30 16.1697 30C16.3004 30 16.4122 30.0445 16.505 30.1335C16.5997 30.2225 16.647 30.3295 16.647 30.4545C16.647 30.5795 16.5997 30.6866 16.505 30.7756C16.4122 30.8646 16.3004 30.9091 16.1697 30.9091ZM19.5682 36.0909C19.1477 36.0909 18.785 35.9981 18.4801 35.8125C18.1771 35.625 17.9432 35.3636 17.7784 35.0284C17.6155 34.6913 17.5341 34.2992 17.5341 33.8523C17.5341 33.4053 17.6155 33.0114 17.7784 32.6705C17.9432 32.3277 18.1723 32.0606 18.4659 31.8693C18.7614 31.6761 19.1061 31.5795 19.5 31.5795C19.7273 31.5795 19.9517 31.6174 20.1733 31.6932C20.3949 31.7689 20.5966 31.892 20.7784 32.0625C20.9602 32.2311 21.1051 32.4545 21.2131 32.733C21.321 33.0114 21.375 33.3542 21.375 33.7614V34.0455H18.0114V33.4659H20.6932C20.6932 33.2197 20.6439 33 20.5455 32.8068C20.4489 32.6136 20.3106 32.4612 20.1307 32.3494C19.9527 32.2377 19.7424 32.1818 19.5 32.1818C19.233 32.1818 19.0019 32.2481 18.8068 32.3807C18.6136 32.5114 18.465 32.6818 18.3608 32.892C18.2566 33.1023 18.2045 33.3277 18.2045 33.5682V33.9545C18.2045 34.2841 18.2614 34.5634 18.375 34.7926C18.4905 35.0199 18.6506 35.1932 18.8551 35.3125C19.0597 35.4299 19.2973 35.4886 19.5682 35.4886C19.7443 35.4886 19.9034 35.464 20.0455 35.4148C20.1894 35.3636 20.3134 35.2879 20.4176 35.1875C20.5218 35.0852 20.6023 34.9583 20.6591 34.8068L21.3068 34.9886C21.2386 35.2083 21.1241 35.4015 20.9631 35.5682C20.8021 35.733 20.6032 35.8617 20.3665 35.9545C20.1297 36.0455 19.8636 36.0909 19.5682 36.0909ZM24.2926 31.6364V32.2045H22.0312V31.6364H24.2926ZM22.6903 30.5909H23.3608V34.75C23.3608 34.9394 23.3883 35.0814 23.4432 35.1761C23.5 35.2689 23.572 35.3314 23.6591 35.3636C23.7481 35.3939 23.8419 35.4091 23.9403 35.4091C24.0142 35.4091 24.0748 35.4053 24.1222 35.3977C24.1695 35.3883 24.2074 35.3807 24.2358 35.375L24.3722 35.9773C24.3267 35.9943 24.2633 36.0114 24.1818 36.0284C24.1004 36.0473 23.9972 36.0568 23.8722 36.0568C23.6828 36.0568 23.4972 36.0161 23.3153 35.9347C23.1354 35.8532 22.9858 35.7292 22.8665 35.5625C22.7491 35.3958 22.6903 35.1856 22.6903 34.9318V30.5909ZM25.3011 36V31.6364H25.9716V36H25.3011ZM25.642 30.9091C25.5114 30.9091 25.3987 30.8646 25.304 30.7756C25.2112 30.6866 25.1648 30.5795 25.1648 30.4545C25.1648 30.3295 25.2112 30.2225 25.304 30.1335C25.3987 30.0445 25.5114 30 25.642 30C25.7727 30 25.8845 30.0445 25.9773 30.1335C26.072 30.2225 26.1193 30.3295 26.1193 30.4545C26.1193 30.5795 26.072 30.6866 25.9773 30.7756C25.8845 30.8646 25.7727 30.9091 25.642 30.9091ZM30.7678 31.6364L29.1541 36H28.4723L26.8587 31.6364H27.5859L28.7905 35.1136H28.8359L30.0405 31.6364H30.7678ZM33.2692 36.0909C32.8752 36.0909 32.5296 35.9972 32.2322 35.8097C31.9368 35.6222 31.7057 35.3598 31.5391 35.0227C31.3743 34.6856 31.2919 34.2917 31.2919 33.8409C31.2919 33.3864 31.3743 32.9896 31.5391 32.6506C31.7057 32.3116 31.9368 32.0483 32.2322 31.8608C32.5296 31.6733 32.8752 31.5795 33.2692 31.5795C33.6631 31.5795 34.0078 31.6733 34.3033 31.8608C34.6006 32.0483 34.8317 32.3116 34.9964 32.6506C35.1631 32.9896 35.2464 33.3864 35.2464 33.8409C35.2464 34.2917 35.1631 34.6856 34.9964 35.0227C34.8317 35.3598 34.6006 35.6222 34.3033 35.8097C34.0078 35.9972 33.6631 36.0909 33.2692 36.0909ZM33.2692 35.4886C33.5684 35.4886 33.8146 35.4119 34.0078 35.2585C34.201 35.1051 34.344 34.9034 34.4368 34.6534C34.5296 34.4034 34.576 34.1326 34.576 33.8409C34.576 33.5492 34.5296 33.2775 34.4368 33.0256C34.344 32.7737 34.201 32.5701 34.0078 32.4148C33.8146 32.2595 33.5684 32.1818 33.2692 32.1818C32.9699 32.1818 32.7237 32.2595 32.5305 32.4148C32.3374 32.5701 32.1944 32.7737 32.1016 33.0256C32.0088 33.2775 31.9624 33.5492 31.9624 33.8409C31.9624 34.1326 32.0088 34.4034 32.1016 34.6534C32.1944 34.9034 32.3374 35.1051 32.5305 35.2585C32.7237 35.4119 32.9699 35.4886 33.2692 35.4886ZM39.3608 32.6136L38.7585 32.7841C38.7206 32.6837 38.6648 32.5862 38.5909 32.4915C38.5189 32.3949 38.4205 32.3153 38.2955 32.2528C38.1705 32.1903 38.0104 32.1591 37.8153 32.1591C37.5483 32.1591 37.3258 32.2206 37.1477 32.3438C36.9716 32.465 36.8835 32.6193 36.8835 32.8068C36.8835 32.9735 36.9441 33.1051 37.0653 33.2017C37.1866 33.2983 37.3759 33.3788 37.6335 33.4432L38.2812 33.6023C38.6714 33.697 38.9621 33.8419 39.1534 34.0369C39.3447 34.2301 39.4403 34.4792 39.4403 34.7841C39.4403 35.0341 39.3684 35.2576 39.2244 35.4545C39.0824 35.6515 38.8835 35.8068 38.6278 35.9205C38.3722 36.0341 38.0748 36.0909 37.7358 36.0909C37.2907 36.0909 36.9223 35.9943 36.6307 35.8011C36.339 35.608 36.1544 35.3258 36.0767 34.9545L36.7131 34.7955C36.7737 35.0303 36.8883 35.2064 37.0568 35.3239C37.2273 35.4413 37.4498 35.5 37.7244 35.5C38.0369 35.5 38.285 35.4337 38.4688 35.3011C38.6544 35.1667 38.7472 35.0057 38.7472 34.8182C38.7472 34.6667 38.6941 34.5398 38.5881 34.4375C38.482 34.3333 38.3191 34.2557 38.0994 34.2045L37.3722 34.0341C36.9725 33.9394 36.679 33.7926 36.4915 33.5938C36.3059 33.393 36.2131 33.142 36.2131 32.8409C36.2131 32.5947 36.2822 32.3769 36.4205 32.1875C36.5606 31.9981 36.7509 31.8494 36.9915 31.7415C37.2339 31.6335 37.5085 31.5795 37.8153 31.5795C38.2472 31.5795 38.5862 31.6742 38.8324 31.8636C39.0805 32.053 39.2566 32.303 39.3608 32.6136Z" fill="#101820"/>
</svg>
