<svg width="32" height="32" viewBox="0 0 32 32" fill="none" xmlns="http://www.w3.org/2000/svg">
<path d="M16 7H16.33C17.8419 7.05388 19.4312 7.49969 20.8335 8.38915C21.8347 10.6727 22.8048 9.94698 23.5303 11.1106C24.2918 12.3321 24.8229 13.8438 25 15.67V16C25 17.78 24.4722 19.5201 23.4832 21.0001C22.4943 22.4802 21.0887 23.6337 19.4442 24.3149C17.7996 24.9961 15.99 25.1743 14.2442 24.8271C12.4984 24.4798 10.8947 23.6226 9.63604 22.364C8.37737 21.1053 7.5202 19.5016 7.17294 17.7558C6.82567 16.01 7.0039 14.2004 7.68509 12.5558C8.36628 10.9113 9.51983 9.50571 10.9999 8.51677C12.4799 7.52784 14.22 7 16 7Z" fill="#0375F8" stroke="#0375F8" stroke-width="1.25" stroke-linecap="round" stroke-linejoin="round"/>
<path d="M19 13L16.5 15.5L19 13ZM19 10V13H22L25 10H22V7L19 10Z" fill="#0375F8"/>
<path d="M19 13L16.5 15.5M19 13V10L22 7V10H25L22 13H19Z" stroke="white" stroke-width="1.25" stroke-linecap="round" stroke-linejoin="round"/>
<path d="M20.8999 17.0001C20.7191 17.885 20.3019 18.7044 19.6927 19.3712C19.0835 20.0381 18.305 20.5274 17.44 20.7873C16.575 21.0472 15.6558 21.068 14.7799 20.8474C13.9041 20.6268 13.1043 20.173 12.4657 19.5343C11.827 18.8957 11.3733 18.096 11.1527 17.2201C10.9321 16.3443 10.9528 15.425 11.2127 14.56C11.4726 13.695 11.962 12.9166 12.6288 12.3074C13.2956 11.6982 14.115 11.281 14.9999 11.1001" stroke="white" stroke-width="1.25" stroke-linecap="round" stroke-linejoin="round"/>
</svg>
