<svg width="24" height="24" viewBox="0 0 24 24" fill="none" xmlns="http://www.w3.org/2000/svg">
<circle cx="6.32471" cy="7.21851" r="4.32471" stroke="currentColor" stroke-width="1.5"/>
<circle cx="16.3465" cy="19.1373" r="1.96713" stroke="currentColor" stroke-width="1.5"/>
<circle cx="6.29281" cy="19.1373" r="1.96713" stroke="currentColor" stroke-width="1.5"/>
<path d="M6.32422 5.21826L6.32422 9.21784" stroke="currentColor" stroke-width="1.5" stroke-linecap="round"/>
<path d="M8.32422 7.21802L4.32464 7.21802" stroke="currentColor" stroke-width="1.5" stroke-linecap="round"/>
<path d="M16.7844 8.50448V7.85182C16.7844 6.2222 15.4634 4.90112 13.8337 4.90112H13.1266M16.7844 8.50448L16.7787 8.50113M16.7844 8.50448L20.5328 10.6858C21.4408 11.2142 21.9994 12.1855 21.9994 13.2361V16.1833C21.9994 17.8129 20.6783 19.134 19.0487 19.134H18.3117M16.7844 8.50448V17.2247M2.10107 13.2516V16.1872C2.10107 17.568 3.04964 18.7274 4.33072 19.0491M21.9995 13.4785H19.4028M14.3849 19.1379H8.2666" stroke="currentColor" stroke-width="1.5" stroke-linecap="round"/>
</svg>
