<svg width="24" height="24" viewBox="0 0 24 24" fill="none" xmlns="http://www.w3.org/2000/svg">
<path d="M4.25098 12.5V6.49075C4.29998 4.41175 6.00498 2.75375 8.08498 2.76175H14.738L19.803 8.03775V12.5" stroke="currentColor" stroke-width="1.5" stroke-linecap="round" stroke-linejoin="round"/>
<path d="M14.4751 2.75V5.659C14.4751 7.079 15.6231 8.23 17.0431 8.234H19.7981" stroke="currentColor" stroke-width="1.5" stroke-linecap="round" stroke-linejoin="round"/>
<path d="M7.86535 16.9827C7.86535 17.2976 7.78944 17.5928 7.63762 17.8683C7.49142 18.1439 7.25807 18.366 6.93757 18.5347C6.62269 18.7033 6.22346 18.7877 5.73989 18.7877H4.75307V20.0971C4.75307 20.3733 4.52922 20.5971 4.25307 20.5971H4.07227C3.79612 20.5971 3.57227 20.3733 3.57227 20.0971V15.6609C3.57227 15.3848 3.79612 15.1609 4.07227 15.1609H5.73989C6.19535 15.1609 6.58333 15.2396 6.90383 15.3971C7.22434 15.5545 7.46331 15.771 7.62075 16.0465C7.78381 16.322 7.86535 16.6341 7.86535 16.9827ZM5.68929 17.8346C6.01541 17.8346 6.2572 17.7615 6.41464 17.6153C6.57208 17.4635 6.6508 17.2526 6.6508 16.9827C6.6508 16.4092 6.3303 16.1224 5.68929 16.1224H4.75307V17.8346H5.68929Z" fill="currentColor"/>
<path d="M13.1784 15.2973C13.6507 15.5391 14.0134 15.8849 14.2664 16.3347C14.5251 16.7789 14.6226 17.0385 14.6226 17.6289C14.6226 18.0831 14.5251 18.5434 14.2664 18.9876C14.0134 19.4262 13.6507 19.7664 13.1784 20.0082C12.5204 20.345 11.61 20.3914 10.9915 20.3914H10.3107C10.0346 20.3914 9.81071 20.1676 9.81071 19.8914V15.4552C9.81071 15.1791 10.0346 14.9545 10.3106 14.9458C11.2871 14.9151 12.3029 14.8437 13.1784 15.2973ZM12.9422 18.8611C13.2796 18.5237 13.458 18.2418 13.458 17.6289C13.458 17.016 13.2796 16.7958 12.9422 16.4528C12.3806 15.8725 11.4029 15.9505 10.9915 15.9505V19.3877C11.7619 19.3877 12.3606 19.4427 12.9422 18.8611Z" fill="currentColor"/>
<path d="M20.1221 15.1609C20.3853 15.1609 20.5986 15.3743 20.5986 15.6375C20.5986 15.9006 20.3853 16.114 20.1221 16.114H18.1442V17.6237H19.557C19.8155 17.6237 20.0251 17.8333 20.0251 18.0918C20.0251 18.3504 19.8155 18.56 19.557 18.56H18.1442V20.0971C18.1442 20.3733 17.9204 20.5971 17.6442 20.5971H17.4634C17.1873 20.5971 16.9634 20.3733 16.9634 20.0971V15.6609C16.9634 15.3848 17.1873 15.1609 17.4634 15.1609H20.1221Z" fill="currentColor"/>
</svg>
