<svg width="24" height="24" viewBox="0 0 24 24" fill="none" xmlns="http://www.w3.org/2000/svg">
<path d="M14.5976 8.88714L18.9144 12.3578M9.09853 17.4326L9.35755 18.3425C9.62704 19.2891 10.5453 19.899 11.5223 19.7803L12.6023 19.6491C13.1384 19.5839 13.6253 19.3048 13.9524 18.8752L20.1022 10.7978C20.7588 9.93529 20.6088 8.70672 19.764 8.02751L18.5657 7.06409C17.6887 6.35901 16.4029 6.51595 15.7213 7.41127L9.43081 15.6735C9.04915 16.1748 8.92602 16.8267 9.09853 17.4326Z" stroke="currentColor" stroke-width="1.5"/>
<path d="M6.98051 3.99489C8.26157 3.8708 10.7345 4.32 10.3778 7.10955C9.93183 10.5965 3.64293 9.58052 3.28192 14.7333C3.07865 17.6346 5.23822 18.5716 6.71466 18.7339" stroke="currentColor" stroke-width="1.5" stroke-linecap="round"/>
</svg>
