<svg width="24" height="24" viewBox="0 0 24 24" fill="none" xmlns="http://www.w3.org/2000/svg">
<path fill-rule="evenodd" clip-rule="evenodd" d="M5.91003 18.1678C9.38886 21.6376 10.4842 21.7175 14.5676 17.6447C17.7426 14.478 18.4049 13.416 18.8121 11.7891C19.1967 10.2524 18.888 7.20867 17.8929 6.21614C16.8978 5.2236 13.8052 4.87456 12.2466 5.24067C10.4276 5.66792 8.61966 7.3533 6.43455 9.53273C2.35112 13.6055 2.43119 14.698 5.91003 18.1678Z" stroke="currentColor" stroke-width="1.5" stroke-linecap="round" stroke-linejoin="round"/>
<path d="M15.9176 8.38536C14.7544 7.22518 14.7544 5.345 15.9176 4.18482C17.0799 3.02549 18.965 3.02549 20.1282 4.18567C21.2906 5.345 21.2906 7.22518 20.1282 8.38451C19.8457 8.66631 19.5205 8.87967 19.1735 9.02459" stroke="currentColor" stroke-width="1.5" stroke-linecap="round" stroke-linejoin="round"/>
<path d="M8.17236 13.137L10.8691 15.8783" stroke="currentColor" stroke-width="1.5" stroke-linecap="round" stroke-linejoin="round"/>
</svg>
