<svg width="24" height="24" viewBox="0 0 24 24" fill="none" xmlns="http://www.w3.org/2000/svg">
<g clip-path="url(#clip0_18382_11169)">
<path d="M22.4999 7.14367C22.2112 7.37117 21.9312 7.60742 21.5374 7.39742C21.1524 7.19617 21.1962 6.84617 21.1962 6.49617C21.1962 5.58617 21.1962 4.68492 21.1962 3.77492C21.1962 3.08367 21.0124 2.89992 20.3387 2.89117C19.3762 2.89117 18.4224 2.89117 17.4599 2.89117C17.0049 2.89117 16.6637 2.76867 16.6374 2.25242C16.6112 1.79742 16.8912 1.58742 17.4774 1.58742C18.3087 1.58742 19.1487 1.63992 19.9799 1.56992C21.1262 1.47367 21.9837 1.84117 22.5087 2.89117V7.13492L22.4999 7.14367Z" fill="currentColor"/>
<path d="M3.02251 22.4999C1.99001 22.0886 1.53501 21.3361 1.59626 20.2161C1.64876 19.2799 1.61376 18.3349 1.60501 17.3986C1.60501 16.9524 1.76251 16.6549 2.24376 16.6286C2.68126 16.6024 2.90876 16.8824 2.90876 17.4161C2.90876 18.3961 2.90876 19.3674 2.90876 20.3474C2.90876 20.9949 3.10126 21.1961 3.74001 21.1961C4.65876 21.1961 5.58626 21.1961 6.50501 21.1961C6.85501 21.1961 7.20501 21.1611 7.40626 21.5374C7.61626 21.9311 7.38001 22.2199 7.15251 22.4999H3.02251Z" fill="currentColor"/>
<path d="M16.9522 22.5001C16.7247 22.2201 16.4884 21.9313 16.6984 21.5376C16.8909 21.1613 17.2497 21.1876 17.5909 21.1963C18.5272 21.1963 19.4722 21.1963 20.4084 21.1963C20.9859 21.1963 21.1872 20.9863 21.1959 20.4088C21.1959 19.4726 21.1959 18.5276 21.1959 17.5913C21.1959 17.2413 21.1609 16.8913 21.5372 16.6901C21.9309 16.4888 22.2197 16.7251 22.4997 16.9438V21.0826C22.2459 21.7651 21.7647 22.2376 21.0822 22.5001H16.9434H16.9522Z" fill="currentColor"/>
<path d="M7.79116 11.3962C7.21366 11.3962 6.63616 11.3962 6.04991 11.3962C5.02616 11.3787 4.22991 10.5824 4.22116 9.56741C4.21241 8.38616 4.21241 7.21366 4.22116 6.03241C4.22991 5.01741 5.03491 4.22991 6.06741 4.22116C7.22241 4.21241 8.38616 4.21241 9.54116 4.22116C10.5999 4.22116 11.3874 5.01741 11.3962 6.07616C11.4049 7.23991 11.4049 8.39491 11.3962 9.55866C11.3874 10.6087 10.5912 11.3874 9.52366 11.4049C8.94616 11.4049 8.36866 11.4049 7.78241 11.4049L7.79116 11.3962ZM7.76491 10.0924C8.30741 10.0924 8.84991 10.0924 9.39241 10.0924C9.85616 10.0924 10.0924 9.84741 10.0924 9.38366C10.0924 8.33366 10.0924 7.28366 10.0924 6.22491C10.0924 5.76116 9.84741 5.52491 9.38366 5.52491C8.33366 5.52491 7.28366 5.52491 6.22491 5.52491C5.76116 5.52491 5.52491 5.76991 5.52491 6.23366C5.52491 7.28366 5.52491 8.33366 5.52491 9.39241C5.52491 9.85616 5.76991 10.0924 6.23366 10.0924C6.74116 10.0924 7.24866 10.0924 7.75616 10.0924H7.76491Z" fill="currentColor"/>
<path d="M12.709 7.78262C12.709 7.20512 12.709 6.61887 12.709 6.04137C12.7265 5.01762 13.514 4.22137 14.5377 4.21262C15.7102 4.20387 16.8915 4.20387 18.0727 4.21262C19.0877 4.22137 19.884 5.02637 19.8927 6.05012C19.9015 7.21387 19.9015 8.36887 19.8927 9.53262C19.8927 10.5914 19.0965 11.3789 18.0377 11.3876C16.8827 11.3964 15.719 11.3964 14.564 11.3876C13.514 11.3789 12.7352 10.5826 12.7177 9.51512C12.7177 8.93762 12.7177 8.35137 12.7177 7.77387L12.709 7.78262ZM16.349 5.51637C15.824 5.51637 15.299 5.51637 14.774 5.51637C14.2927 5.51637 14.0215 5.73512 14.0215 6.23387C14.0215 7.28387 14.0215 8.33387 14.0215 9.39262C14.0215 9.85637 14.2752 10.0926 14.739 10.0926C15.789 10.0926 16.839 10.0926 17.8977 10.0926C18.3615 10.0926 18.5977 9.84762 18.5977 9.37512C18.5977 8.32512 18.5977 7.27512 18.5977 6.21637C18.5977 5.75262 18.3527 5.51637 17.8802 5.51637C17.3727 5.51637 16.8652 5.51637 16.3577 5.51637H16.349Z" fill="currentColor"/>
<path d="M7.79116 19.8837C7.21366 19.8837 6.63616 19.8837 6.04991 19.8837C5.02616 19.8662 4.22991 19.0699 4.22116 18.0549C4.21241 16.8737 4.21241 15.7012 4.22116 14.5199C4.22991 13.5049 5.03491 12.7087 6.05866 12.6999C7.21366 12.6912 8.37741 12.6912 9.53241 12.6999C10.5912 12.6999 11.3787 13.4962 11.3874 14.5549C11.3962 15.7187 11.3962 16.8737 11.3874 18.0374C11.3787 19.0874 10.5824 19.8749 9.51491 19.8837C8.93741 19.8837 8.35991 19.8837 7.77366 19.8837H7.79116ZM10.0924 16.2874C10.0924 15.7624 10.0924 15.2374 10.0924 14.7124C10.0924 14.2487 9.84741 14.0037 9.38366 14.0037C8.33366 14.0037 7.28366 14.0037 6.22491 14.0037C5.76116 14.0037 5.51616 14.2399 5.51616 14.7124C5.51616 15.7624 5.51616 16.8124 5.51616 17.8712C5.51616 18.3349 5.76116 18.5799 6.22491 18.5799C7.27491 18.5799 8.32491 18.5799 9.38366 18.5799C9.84741 18.5799 10.0924 18.3349 10.0924 17.8712C10.0924 17.3462 10.0924 16.8212 10.0924 16.2962V16.2874Z" fill="currentColor"/>
<path d="M17.2765 15.9725C17.8452 15.9725 18.3352 15.9637 18.8252 15.9725C19.4727 15.99 19.8752 16.3837 19.884 17.0312C19.8927 17.6262 19.8927 18.23 19.884 18.825C19.8665 19.4725 19.464 19.875 18.8252 19.8837C18.2302 19.8925 17.6265 19.8925 17.0315 19.8837C16.384 19.8662 15.9902 19.4637 15.9727 18.825C15.964 18.335 15.9727 17.845 15.9727 17.2762C15.2902 17.2762 14.6252 17.2762 13.9602 17.2762C13.0677 17.2762 12.709 16.9175 12.709 16.025C12.709 15.2812 12.709 14.5375 12.709 13.7937C12.7177 13.1112 13.1202 12.7175 13.794 12.7087C14.5902 12.7 15.3865 12.7 16.1915 12.7087C16.874 12.7175 17.2677 13.12 17.2765 13.7937C17.2852 14.4937 17.2765 15.2025 17.2765 15.9725ZM14.039 15.9375H15.9377V14.0475H14.039V15.9375ZM18.5627 17.3025H17.3115V18.545H18.5627V17.3025Z" fill="currentColor"/>
<path d="M1.60522 5.01744C1.60522 4.50994 1.60522 4.00244 1.60522 3.49494C1.62272 2.40119 2.40147 1.60494 3.48647 1.59619C4.55397 1.59619 5.62147 1.59619 6.69772 1.59619C7.24022 1.59619 7.51147 1.83244 7.48522 2.26994C7.45897 2.74244 7.16147 2.90869 6.71522 2.90869C5.83147 2.89994 4.93897 2.90869 4.05522 2.90869C3.02272 2.90869 2.92647 3.00494 2.92647 4.01119C2.92647 4.90369 2.92647 5.78744 2.92647 6.67994C2.92647 7.22244 2.69897 7.48494 2.27022 7.48494C1.84147 7.48494 1.63147 7.21369 1.63147 6.66244C1.63147 6.11994 1.63147 5.57744 1.63147 5.02619L1.60522 5.01744Z" fill="currentColor"/>
<path d="M8.78886 7.81757C8.78886 8.64007 8.64886 8.78007 7.80886 8.78007C6.96011 8.78007 6.82886 8.64007 6.82886 7.75632C6.82886 6.95132 6.97761 6.82007 7.83511 6.82007C8.64886 6.82007 8.78886 6.96882 8.78886 7.80882V7.81757Z" fill="currentColor"/>
<path d="M15.3162 7.79132C15.3162 6.96007 15.4562 6.82007 16.2874 6.82007C17.1449 6.82007 17.2762 6.96007 17.2762 7.83507C17.2762 8.64007 17.1274 8.78007 16.2787 8.78007C15.4649 8.78007 15.3249 8.63132 15.3249 7.79132H15.3162Z" fill="currentColor"/>
<path d="M8.78886 16.3049C8.78886 17.1362 8.64886 17.2762 7.81761 17.2762C6.96011 17.2762 6.82886 17.1362 6.82886 16.2612C6.82886 15.4562 6.97761 15.3162 7.82636 15.3162C8.64011 15.3162 8.78886 15.4649 8.78886 16.3049Z" fill="currentColor"/>
</g>
<defs>
<clipPath id="clip0_18382_11169">
<rect width="21" height="21" fill="white" transform="translate(1.5 1.5)"/>
</clipPath>
</defs>
</svg>
