<svg width="24" height="24" viewBox="0 0 24 24" fill="none" xmlns="http://www.w3.org/2000/svg">
<path fill-rule="evenodd" clip-rule="evenodd" d="M19.5306 7.74573L15.1929 3.27686V5.67073C15.1929 6.81486 16.1175 7.74216 17.2616 7.74573H19.5306Z" fill="currentColor"/>
<path d="M5.54785 19.8528C6.52967 20.5166 9.45768 21.7058 13.3151 21.1515C16.4348 20.7033 19.0975 18.4496 20.5823 16.7639C21.0911 16.1862 20.9655 15.3205 20.3666 14.8369C19.717 14.3122 18.7598 14.4366 18.1441 15.0007C16.6957 16.3279 14.3046 17.7006 11.6403 16.9366C12.877 17.2912 15.2014 17.1974 15.5318 15.6945C15.8037 14.458 14.1418 13.5215 11.0302 13.5215C7.91868 13.5215 6.63446 15.2709 5.54785 15.2709" stroke="currentColor" stroke-width="1.5" stroke-linejoin="round"/>
<path d="M4.61411 13.6345H3.15381V21.2023H4.61411C5.16639 21.2023 5.61411 20.7545 5.61411 20.2023V14.6345C5.61411 14.0822 5.16639 13.6345 4.61411 13.6345Z" fill="currentColor" stroke="currentColor" stroke-width="1.5" stroke-linecap="round" stroke-linejoin="round"/>
<path opacity="0.4" fill-rule="evenodd" clip-rule="evenodd" d="M8.08449 2.76175H14.1929V5.67072C14.1929 7.36637 15.5639 8.74094 17.2595 8.74572L17.2609 8.74572H19.8025L19.8025 11.1184C19.7262 11.1148 19.6494 11.113 19.5723 11.113C18.514 11.113 17.5344 11.4499 16.7349 12.0222C15.4796 11.042 13.6702 10.4267 11.6587 10.4267C9.83358 10.4267 8.17486 10.9332 6.94543 11.7593C6.2212 11.0749 5.28745 10.6098 4.25049 10.4704V6.49075C4.29949 4.41175 6.00449 2.75375 8.08449 2.76175ZM15.1929 3.2361L19.5221 7.74572H17.2616C16.1175 7.74215 15.1929 6.81485 15.1929 5.67072V3.2361Z" fill="currentColor"/>
</svg>
