<svg width="24" height="24" viewBox="0 0 24 24" fill="none" xmlns="http://www.w3.org/2000/svg">
<path d="M4.25098 10.6935V6.49075C4.29998 4.41175 6.00498 2.75375 8.08498 2.76175H14.738L19.803 8.03775V10.6935" stroke="currentColor" stroke-width="1.5" stroke-linecap="round" stroke-linejoin="round"/>
<path d="M14.4751 2.75V5.659C14.4751 7.079 15.6231 8.23 17.0431 8.234H19.7981" stroke="currentColor" stroke-width="1.5" stroke-linecap="round" stroke-linejoin="round"/>
<path d="M13.3155 21.1515L13.4222 21.8939L13.3155 21.1515ZM20.5826 16.7639L21.1454 17.2596L21.1454 17.2596L20.5826 16.7639ZM18.1445 15.0007L18.6512 15.5537L18.1445 15.0007ZM11.8474 16.2156C11.4493 16.1014 11.0339 16.3316 10.9197 16.7298C10.8056 17.128 11.0358 17.5433 11.4339 17.6575L11.8474 16.2156ZM15.5322 15.6945L16.2647 15.8555V15.8555L15.5322 15.6945ZM20.367 14.8369L20.8382 14.2534V14.2534L20.367 14.8369ZM3.15381 12.8846C2.7396 12.8846 2.40381 13.2204 2.40381 13.6346C2.40381 14.0488 2.7396 14.3846 3.15381 14.3846V12.8846ZM3.15381 20.4523C2.7396 20.4523 2.40381 20.7881 2.40381 21.2023C2.40381 21.6166 2.7396 21.9523 3.15381 21.9523V20.4523ZM5.12812 20.4741C6.26203 21.2408 9.37739 22.4751 13.4222 21.8939L13.2088 20.4092C9.53869 20.9365 6.79805 19.7925 5.96831 19.2315L5.12812 20.4741ZM13.4222 21.8939C16.8046 21.4079 19.6171 18.9947 21.1454 17.2596L20.0198 16.2681C18.5785 17.9045 16.0657 19.9987 13.2088 20.4092L13.4222 21.8939ZM17.6378 14.4477C16.2647 15.7059 14.1389 16.8728 11.8474 16.2156L11.4339 17.6575C14.4709 18.5284 17.1273 16.95 18.6512 15.5537L17.6378 14.4477ZM5.54822 16.0209C6.00851 16.0209 6.42758 15.8383 6.76623 15.6658C6.94299 15.5757 7.12734 15.472 7.30648 15.3717C7.49002 15.2689 7.67557 15.1653 7.87453 15.0624C8.65266 14.66 9.63183 14.2715 11.0306 14.2715V12.7715C9.3178 12.7715 8.09909 13.2576 7.18558 13.73C6.96162 13.8458 6.7559 13.9608 6.57344 14.063C6.38658 14.1677 6.23021 14.2554 6.08515 14.3293C5.78017 14.4847 5.63123 14.5209 5.54822 14.5209V16.0209ZM11.0306 14.2715C12.5305 14.2715 13.5904 14.5001 14.2123 14.8139C14.5199 14.9691 14.6764 15.1227 14.748 15.2354C14.8083 15.3305 14.825 15.4185 14.7997 15.5335L16.2647 15.8555C16.3753 15.3523 16.2862 14.8595 16.0142 14.4312C15.7534 14.0206 15.3509 13.7082 14.888 13.4747C13.969 13.0111 12.6422 12.7715 11.0306 12.7715V14.2715ZM14.7997 15.5335C14.7284 15.8578 14.432 16.1363 13.7687 16.2789C13.1227 16.4177 12.3578 16.362 11.8474 16.2156L11.4339 17.6575C12.1602 17.8658 13.1759 17.9405 14.0839 17.7454C14.9745 17.554 16.0056 17.0341 16.2647 15.8555L14.7997 15.5335ZM20.8382 14.2534C19.8413 13.4483 18.4675 13.6875 17.6378 14.4477L18.6512 15.5537C19.0528 15.1856 19.5934 15.1761 19.8958 15.4203L20.8382 14.2534ZM21.1454 17.2596C21.971 16.3223 21.7269 14.9711 20.8382 14.2534L19.8958 15.4203C20.2049 15.67 20.2119 16.05 20.0198 16.2681L21.1454 17.2596ZM3.15381 14.3846H4.61411V12.8846H3.15381V14.3846ZM4.86411 14.6346V20.2023H6.36411V14.6346H4.86411ZM4.61411 20.4523H3.15381V21.9523H4.61411V20.4523ZM4.86411 20.2023C4.86411 20.3404 4.75218 20.4523 4.61411 20.4523V21.9523C5.58061 21.9523 6.36411 21.1688 6.36411 20.2023H4.86411ZM4.61411 14.3846C4.75218 14.3846 4.86411 14.4965 4.86411 14.6346H6.36411C6.36411 13.6681 5.58061 12.8846 4.61411 12.8846V14.3846Z" fill="currentColor"/>
</svg>
