<svg width="24" height="24" viewBox="0 0 24 24" fill="none" xmlns="http://www.w3.org/2000/svg">
<path d="M8.59058 16.7733C8.40974 16.7733 8.2363 16.8452 8.10843 16.973C7.98055 17.1009 7.90871 17.2743 7.90871 17.4552V19.087C6.3485 18.1865 5.12906 16.7964 4.43955 15.1321C3.75004 13.4679 3.62901 11.6226 4.09524 9.88256C4.56146 8.14251 5.58888 6.60496 7.01811 5.50841C8.44734 4.41185 10.1985 3.8176 11.9999 3.81784C12.1808 3.81784 12.3542 3.746 12.4821 3.61812C12.6099 3.49025 12.6818 3.31681 12.6818 3.13597C12.6818 2.95513 12.6099 2.78169 12.4821 2.65382C12.3542 2.52594 12.1808 2.4541 11.9999 2.4541C9.91287 2.45422 7.88337 3.13827 6.22206 4.40152C4.56076 5.66477 3.35919 7.43763 2.80128 9.44872C2.24337 11.4598 2.35987 13.5983 3.13294 15.5369C3.906 17.4755 5.29304 19.1073 7.08174 20.1827H5.18124C5.0004 20.1827 4.82697 20.2545 4.69909 20.3824C4.57122 20.5102 4.49938 20.6837 4.49938 20.8645C4.49938 21.0454 4.57122 21.2188 4.69909 21.3467C4.82697 21.4745 5.0004 21.5464 5.18124 21.5464H8.59058C8.77142 21.5464 8.94486 21.4745 9.07273 21.3467C9.20061 21.2188 9.27245 21.0454 9.27245 20.8645V17.4552C9.27245 17.2743 9.20061 17.1009 9.07273 16.973C8.94486 16.8452 8.77142 16.7733 8.59058 16.7733Z" fill="currentColor"/>
<path d="M16.9182 3.81784H18.8187C18.9995 3.81784 19.1729 3.746 19.3008 3.61812C19.4287 3.49025 19.5005 3.31681 19.5005 3.13597C19.5005 2.95513 19.4287 2.78169 19.3008 2.65382C19.1729 2.52594 18.9995 2.4541 18.8187 2.4541H15.4146C15.234 2.4541 15.0607 2.5258 14.9328 2.65345C14.805 2.78111 14.733 2.95428 14.7328 3.13495L14.7275 6.54428C14.7272 6.72507 14.7987 6.89856 14.9263 7.02661C15.0539 7.15467 15.2272 7.22681 15.408 7.22717H15.4093C15.59 7.22717 15.7633 7.15547 15.8911 7.02782C16.019 6.90017 16.0909 6.72699 16.0912 6.54633L16.0936 4.91482C17.6533 5.81571 18.8722 7.20606 19.5612 8.87027C20.2502 10.5345 20.3708 12.3795 19.9043 14.1193C19.4379 15.859 18.4104 17.3962 16.9813 18.4925C15.5521 19.5888 13.8012 20.1829 12 20.1827C11.8191 20.1827 11.6457 20.2545 11.5178 20.3824C11.39 20.5102 11.3181 20.6837 11.3181 20.8645C11.3181 21.0454 11.39 21.2188 11.5178 21.3467C11.6457 21.4745 11.8191 21.5464 12 21.5464C14.087 21.5463 16.1165 20.8622 17.7778 19.599C19.4391 18.3357 20.6407 16.5629 21.1986 14.5518C21.7565 12.5407 21.64 10.4022 20.867 8.46358C20.0939 6.52499 18.7069 4.89315 16.9182 3.81784Z" fill="currentColor"/>
</svg>
