<svg width="24" height="24" viewBox="0 0 24 24" fill="none" xmlns="http://www.w3.org/2000/svg">
<path d="M11.652 13.6197C11.652 13.4831 11.631 13.3571 11.5891 13.252C11.5472 13.1365 11.4739 13.0314 11.3691 12.9474C11.2643 12.8529 11.1072 12.7583 10.9186 12.6638C10.73 12.5692 10.4785 12.4747 10.1642 12.3801C9.81841 12.2646 9.4936 12.1385 9.18975 12.002C8.8859 11.8549 8.61348 11.6973 8.38298 11.5082C8.15247 11.3192 7.96387 11.0986 7.83814 10.8464C7.70193 10.5943 7.63907 10.3002 7.63907 9.96403C7.63907 9.62788 7.71241 9.34425 7.84862 9.09213C7.98483 8.82951 8.1839 8.59841 8.42489 8.40932C8.67635 8.22023 8.96972 8.07317 9.30501 7.96812C9.65077 7.86307 10.0175 7.81055 10.4261 7.81055C10.9814 7.81055 11.4634 7.91559 11.8825 8.11519C12.3016 8.32528 12.6159 8.59841 12.8464 8.95557C12.9407 9.10264 13.0141 9.26021 13.0769 9.41778C13.2131 9.82747 12.8569 10.1741 12.4273 10.1741L12.2702 10.1741C11.9244 10.1741 11.6729 9.87999 11.5158 9.57535C11.4215 9.39677 11.2853 9.26021 11.0967 9.16567C10.9186 9.07112 10.6776 9.0186 10.4052 9.0186C10.1327 9.0186 9.91271 9.06062 9.73459 9.14466C9.55647 9.2287 9.42026 9.33374 9.32596 9.48081C9.23166 9.61737 9.18975 9.77495 9.18975 9.95353C9.18975 10.0796 9.22118 10.2056 9.28405 10.3107C9.34692 10.4157 9.44121 10.5208 9.57742 10.6048C9.70315 10.6994 9.86032 10.7834 10.0489 10.8674C10.2375 10.9515 10.4471 11.025 10.6985 11.1091C11.1072 11.2351 11.4739 11.3822 11.7777 11.5398C12.092 11.6973 12.354 11.8759 12.5635 12.0755C12.7731 12.2751 12.9303 12.4957 13.035 12.7478C13.1398 12.9999 13.1922 13.2836 13.1922 13.5987C13.1922 13.9348 13.1293 14.2395 13.0036 14.5021C12.8779 14.7647 12.6893 14.9958 12.4483 15.1744C12.2073 15.3635 11.9139 15.5001 11.5786 15.5946C11.2434 15.6892 10.8662 15.7417 10.4575 15.7417C10.0803 15.7417 9.71363 15.6892 9.35739 15.5946C8.99068 15.4896 8.66587 15.3425 8.3725 15.1324C8.07913 14.9223 7.84862 14.6597 7.6705 14.3445C7.60763 14.229 7.55525 14.1134 7.51334 13.9874C7.3876 13.5777 7.75432 13.2205 8.1839 13.2205L8.34107 13.2205C8.68683 13.2205 8.93829 13.5147 9.0745 13.8298C9.14784 13.9979 9.25262 14.1344 9.37835 14.229C9.51456 14.334 9.67172 14.4076 9.84984 14.4496C10.0384 14.4916 10.2375 14.5231 10.4575 14.5231C10.73 14.5231 10.95 14.4811 11.1176 14.4076C11.2957 14.334 11.4215 14.2185 11.5053 14.0819C11.5891 13.9454 11.631 13.7878 11.631 13.6092L11.652 13.6197Z" fill="currentColor"/>
<path d="M16.1162 7.79797C16.4724 7.79797 16.7239 8.14463 16.6191 8.49129L14.1988 15.8447C14.1254 16.0653 13.9264 16.2018 13.6959 16.2018C13.3396 16.2018 13.0882 15.8552 13.1929 15.5085L15.6133 8.15514C15.6866 7.93454 15.8857 7.79797 16.1162 7.79797Z" fill="currentColor"/>
<path d="M3.56934 5.10913C3.56934 3.45228 4.91248 2.10913 6.56934 2.10913H17.562C19.2189 2.10913 20.562 3.45228 20.562 5.10913V20.3125C20.562 21.3904 19.459 22.1165 18.4689 21.6903L17.0036 21.0595C16.4895 20.8381 15.9061 20.8424 15.3953 21.0712L14.8549 21.3132C13.039 22.1266 10.9627 22.1287 9.14513 21.3191L8.59705 21.0749C8.07874 20.844 7.48677 20.8442 6.96857 21.0753L5.68033 21.6499C4.6882 22.0923 3.56934 21.3663 3.56934 20.2799V5.10913Z" stroke="currentColor" stroke-width="1.5"/>
</svg>
