<svg width="24" height="24" viewBox="0 0 24 24" fill="none" xmlns="http://www.w3.org/2000/svg">
<path d="M20.8944 9.77234V19.1167M10.5596 9.85377V19.1696" stroke="currentColor" stroke-width="1.5" stroke-linecap="round" stroke-linejoin="round"/>
<path d="M13.4364 4.77051V5.30722M3.10156 4.85194V14.1677" stroke="currentColor" stroke-width="1.5" stroke-linecap="round" stroke-linejoin="round"/>
<ellipse cx="15.7288" cy="9.82585" rx="5.16926" ry="2.8239" stroke="currentColor" stroke-width="1.5" stroke-linecap="round" stroke-linejoin="round"/>
<path d="M13.4401 4.8239C13.4401 3.2643 11.1257 2 8.27082 2C5.41592 2 3.10156 3.2643 3.10156 4.8239C3.10156 6.38349 5.41592 7.6478 8.27082 7.6478" stroke="currentColor" stroke-width="1.5" stroke-linecap="round" stroke-linejoin="round"/>
<path d="M20.8981 19.1761C20.8981 20.7357 18.5837 22 15.7288 22C12.8739 22 10.5596 20.7357 10.5596 19.1761" stroke="currentColor" stroke-width="1.5" stroke-linecap="round" stroke-linejoin="round"/>
<path d="M8.27082 16.9981C5.41592 16.9981 3.10156 15.7338 3.10156 14.1742" stroke="currentColor" stroke-width="1.5" stroke-linecap="round" stroke-linejoin="round"/>
<path d="M20.8981 14.465C20.8981 16.0246 18.5837 17.2889 15.7288 17.2889C12.8739 17.2889 10.5596 16.0246 10.5596 14.465" stroke="currentColor" stroke-width="1.5" stroke-linecap="round" stroke-linejoin="round"/>
<path d="M8.27082 12.2869C5.41592 12.2869 3.10156 11.0226 3.10156 9.46301" stroke="currentColor" stroke-width="1.5" stroke-linecap="round" stroke-linejoin="round"/>
</svg>
