<svg width="32" height="32" viewBox="0 0 32 32" fill="none" xmlns="http://www.w3.org/2000/svg">
<rect width="32" height="32" rx="16" fill="black" fill-opacity="0.1"/>
<path d="M23.4355 9.77441C25.9292 13.4944 25.9365 18.4035 23.4355 22.1317" stroke="white" stroke-width="1.5" stroke-linecap="round" stroke-linejoin="round"/>
<path d="M20.9883 12.2173C22.2701 14.54 22.2701 17.3746 20.9883 19.6891" stroke="white" stroke-width="1.5" stroke-linecap="round" stroke-linejoin="round"/>
<path fill-rule="evenodd" clip-rule="evenodd" d="M6.68188 15.953C6.67916 17.1993 6.68188 18.6611 7.71097 19.5348C8.74097 20.4093 9.55734 20.0484 10.8892 20.4866C12.2219 20.9257 14.0882 23.633 16.1501 22.4102C17.2646 21.6184 17.7901 20.1239 17.7901 15.953C17.7901 11.782 17.2882 10.3039 16.1501 9.49568C14.0882 8.27386 12.2219 10.9811 10.8892 11.4193C9.55734 11.8584 8.74097 11.4975 7.71097 12.3711C6.68188 13.2448 6.67916 14.7066 6.68188 15.953Z" stroke="white" stroke-width="1.5" stroke-linecap="round" stroke-linejoin="round"/>
</svg>
