<svg width="32" height="32" viewBox="0 0 32 32" fill="none" xmlns="http://www.w3.org/2000/svg">
<rect width="32" height="32" rx="16" fill="black" fill-opacity="0.1"/>
<path d="M12.4042 20.5533C11.3216 20.3028 10.5879 20.4996 9.68423 19.7391C8.67318 18.8801 8.66423 17.4396 8.67318 16.2138C8.66423 14.988 8.67318 13.5475 9.68423 12.6886C10.6953 11.8296 11.5005 12.1786 12.8158 11.7491C14.1221 11.3196 15.9563 8.6533 17.9874 9.85224C18.8105 10.4338 19.2937 11.3822 19.4905 13.467" stroke="white" stroke-width="1.5" stroke-linecap="round" stroke-linejoin="round"/>
<path d="M19.5798 17.6719C19.4635 20.6782 18.9445 21.8861 17.9872 22.5661C16.9493 23.1835 15.9561 22.7808 15.0703 22.1813" stroke="white" stroke-width="1.5" stroke-linecap="round" stroke-linejoin="round"/>
<path d="M24.2861 8.6709L8.94141 24.0156" stroke="white" stroke-width="1.5" stroke-linecap="round" stroke-linejoin="round"/>
</svg>
