<svg width="24" height="24" viewBox="0 0 24 24" fill="none" xmlns="http://www.w3.org/2000/svg">
<path fill-rule="evenodd" clip-rule="evenodd" d="M3 11.99C3 7.02326 6.84316 3 11.88 3C16.9168 3 21 7.02632 21 11.993C21 18.7466 13.1641 23.5317 7.56003 19.5661C7.14777 19.3403 6.42502 19.7022 5.66744 20.0816C4.74341 20.5443 3.76756 21.0329 3.24003 20.5128C2.71526 19.9953 3.20406 19.1157 3.67151 18.2746C4.05921 17.577 4.43223 16.9058 4.20003 16.4896C3.14059 14.5905 3.01771 13.3387 3 11.99ZM15.7382 15.0741L15.4328 15.4255C15.2392 15.6217 15.0082 15.7773 14.7533 15.8829C14.4985 15.9886 14.2251 16.0422 13.9491 16.0406C11.2167 16.128 6.30697 11.2648 8.587 8.62436L8.97294 8.28936C9.16846 8.10109 9.43034 7.99718 9.70199 8.00006C9.97364 8.00294 10.2332 8.11239 10.4247 8.30477C10.4351 8.31515 11.057 9.12016 11.057 9.12016C11.2415 9.31366 11.3442 9.5707 11.3438 9.83786C11.3433 10.105 11.2398 10.3617 11.0546 10.5546L10.5177 11.1911C10.7329 11.7127 11.0492 12.1867 11.4484 12.5859C11.8476 12.9851 12.3219 13.3016 12.844 13.5173L13.4837 12.9793C13.6769 12.7947 13.9341 12.6914 14.2016 12.691C14.4692 12.6907 14.7266 12.7932 14.9204 12.9773C14.9204 12.9773 15.7278 13.5974 15.7382 13.6078C15.9326 13.8025 16.0417 14.0661 16.0417 14.3409C16.0417 14.6158 15.9326 14.8794 15.7382 15.0741Z" fill="currentColor"/>
</svg>
