<svg width="24" height="24" viewBox="0 0 24 24" fill="none" xmlns="http://www.w3.org/2000/svg">
<path d="M15.3496 14.9085C15.1248 15.2564 15.2246 15.7207 15.5725 15.9455C15.9204 16.1703 16.3846 16.0705 16.6094 15.7226L15.3496 14.9085ZM18.9376 10.6127L19.5952 10.9733H19.5952L18.9376 10.6127ZM4.67528 13.9369L5.40693 14.1018L4.67528 13.9369ZM3.47701 20.7544C3.26775 21.1119 3.38791 21.5713 3.74538 21.7806C4.10285 21.9898 4.56227 21.8697 4.77153 21.5122L3.47701 20.7544ZM11.2317 4.2959L10.6476 3.82545L10.6476 3.82545L11.2317 4.2959ZM15.0185 11.9392L15.6228 12.3834L15.6247 12.3808L15.0185 11.9392ZM11.5146 16.7054L12.1189 17.1496L11.5146 16.7054ZM8.18886 19.1565L7.97666 18.4372H7.97666L8.18886 19.1565ZM16.7245 3.18816L16.2829 3.79434V3.79434L16.7245 3.18816ZM11.5726 3.85874L12.1552 4.33099V4.33099L11.5726 3.85874ZM11.2299 20.3111C10.8157 20.3111 10.4799 20.6469 10.4799 21.0611C10.4799 21.4753 10.8157 21.8111 11.2299 21.8111V20.3111ZM18.7274 21.8111C19.1417 21.8111 19.4774 21.4753 19.4774 21.0611C19.4774 20.6469 19.1417 20.3111 18.7274 20.3111V21.8111ZM15.9795 15.3156C16.6094 15.7226 16.6095 15.7226 16.6095 15.7226C16.6095 15.7225 16.6095 15.7225 16.6096 15.7224C16.6096 15.7223 16.6098 15.7221 16.6099 15.7219C16.6102 15.7214 16.6107 15.7207 16.6113 15.7197C16.6125 15.7178 16.6143 15.715 16.6167 15.7113C16.6215 15.7039 16.6286 15.6929 16.6379 15.6786C16.6564 15.6499 16.6836 15.6077 16.7184 15.5538C16.7879 15.446 16.8877 15.2911 17.0088 15.1026C17.251 14.7258 17.5789 14.2146 17.921 13.6772C18.5964 12.6166 19.3534 11.4143 19.5952 10.9733L18.28 10.2521C18.0681 10.6385 17.346 11.7876 16.6558 12.8716C16.3151 13.4065 15.9885 13.9158 15.747 14.2915C15.6263 14.4793 15.5269 14.6337 15.4577 14.741C15.4231 14.7947 15.396 14.8366 15.3776 14.8651C15.3684 14.8793 15.3614 14.8902 15.3567 14.8975C15.3543 14.9012 15.3526 14.9039 15.3514 14.9058C15.3508 14.9067 15.3503 14.9074 15.35 14.9078C15.3499 14.9081 15.3498 14.9082 15.3497 14.9083C15.3497 14.9084 15.3496 14.9084 15.3496 14.9085C15.3496 14.9085 15.3496 14.9085 15.9795 15.3156ZM19.5952 10.9733C20.0008 10.2336 19.8009 9.50951 19.405 8.97583C19.0329 8.47415 18.4576 8.07843 17.8911 7.79183L17.2139 9.13026C17.6807 9.36643 18.0247 9.63285 18.2003 9.86947C18.352 10.0741 18.328 10.1644 18.28 10.2521L19.5952 10.9733ZM3.94363 13.772C3.40862 16.146 3.68177 17.6611 4.25951 19.8543L5.71003 19.4722C5.15866 17.3791 4.94848 16.1361 5.40693 14.1018L3.94363 13.772ZM4.33751 19.2844L3.47701 20.7544L4.77153 21.5122L5.63203 20.0422L4.33751 19.2844ZM5.40693 14.1018C5.48726 13.7454 5.82105 13.0734 6.38406 12.1643C6.9269 11.2878 7.62572 10.2791 8.34936 9.28304C9.79546 7.29258 11.3137 5.38982 11.8158 4.76634L10.6476 3.82545C10.14 4.4557 8.60367 6.38099 7.13582 8.40138C6.40248 9.41077 5.67948 10.4531 5.10883 11.3745C4.55834 12.2634 4.08697 13.136 3.94363 13.772L5.40693 14.1018ZM16.9463 8.01941L14.4123 11.4976L15.6247 12.3808L18.1587 8.90268L16.9463 8.01941ZM14.4142 11.4949L10.9103 16.2611L12.1189 17.1496L15.6228 12.3834L14.4142 11.4949ZM8.34566 8.04358L14.5793 12.5471L15.4577 11.3312L9.22409 6.8277L8.34566 8.04358ZM7.97666 18.4372C7.53832 18.5665 7.09445 18.6376 6.58421 18.7012C6.08785 18.7632 5.50069 18.8207 4.86569 18.9228L5.10385 20.4038C5.70483 20.3071 6.22206 20.2581 6.76992 20.1897C7.3039 20.1231 7.84409 20.0402 8.40106 19.8759L7.97666 18.4372ZM10.9103 16.2611C10.1479 17.2982 9.14148 18.0936 7.97666 18.4372L8.40106 19.8759C9.94655 19.42 11.2075 18.3893 12.1189 17.1496L10.9103 16.2611ZM16.2829 3.79434C17.6328 4.77784 17.9299 6.66947 16.9463 8.01941L18.1587 8.90268C19.63 6.88318 19.1856 4.0533 17.1661 2.58197L16.2829 3.79434ZM12.1552 4.33099C13.1587 3.09294 14.9735 2.84043 16.2829 3.79434L17.1661 2.58197C15.2067 1.1544 12.4924 1.53281 10.9899 3.38648L12.1552 4.33099ZM11.8158 4.76634C11.881 4.68547 11.9427 4.60463 11.9975 4.53312C12.0541 4.4591 12.1042 4.39393 12.1552 4.33099L10.9899 3.38648C10.9239 3.4679 10.8618 3.54895 10.8065 3.62124C10.7492 3.69604 10.699 3.7616 10.6476 3.82545L11.8158 4.76634ZM11.2299 21.8111H18.7274V20.3111H11.2299V21.8111Z" fill="currentColor"/>
</svg>
