<svg width="32" height="32" viewBox="0 0 32 32" fill="none" xmlns="http://www.w3.org/2000/svg">
<path d="M16.2718 28.9136C23.8401 28.9136 29.9753 22.7782 29.9753 15.2099C29.9753 7.64152 23.8401 1.50616 16.2718 1.50616C8.70362 1.50616 2.56836 7.64152 2.56836 15.2099C2.56836 22.7782 8.70362 28.9136 16.2718 28.9136Z" fill="white"/>
<path d="M16.2469 0C7.38285 0 0.0249414 7.11111 0.000250467 15.9506C-0.0244405 20.3951 1.778 24.4198 4.69153 27.3086C7.58037 30.1975 11.5803 32 16 32C20.4197 32 24.4196 30.1975 27.3084 27.3086C30.1973 24.4198 31.9997 20.4198 31.9997 16V3.65432C32.0244 1.65432 30.3701 0 28.3455 0H16.2469ZM27.0615 15.9506C27.0615 18.9877 25.827 21.7531 23.827 23.7284C21.8271 25.7284 19.0864 26.963 16.0494 26.963C13.0124 26.963 10.247 25.7284 8.27172 23.7284C6.29644 21.7531 5.0619 19.037 5.0372 16.0247C4.98782 9.92593 10.1482 4.93827 16.2469 4.93827H23.6048L19.432 9.11111H16.1975C12.4445 9.11111 9.28405 12.0741 9.20998 15.8025C9.16059 17.7531 9.9507 19.5062 11.2099 20.7901C12.4445 22.0247 14.1482 22.7901 16.0494 22.7901C17.6296 22.7901 19.111 22.2469 20.2715 21.3333C21.432 20.4198 22.2962 19.1358 22.6665 17.679H16.9382L20.2715 14.3457H27.0615V15.9506Z" fill="#0375F8"/>
</svg>

