<svg fill="none" xmlns="http://www.w3.org/2000/svg">
  <symbol id="geor" viewBox="0 0 67 24">
    <path d="M7.66221 16.6754C6.63489 16.6754 5.70542 16.478 4.87378 16.0586C4.04214 15.6392 3.30834 15.0717 2.7213 14.3809C2.13427 13.6654 1.66953 12.8512 1.32709 11.889C0.98465 10.9514 0.837891 9.9152 0.837891 8.82961C0.837891 7.69469 1.00911 6.63378 1.37601 5.64688C1.71845 4.65999 2.20765 3.82113 2.8436 3.10564C3.47956 2.39014 4.21336 1.82268 5.09392 1.40325C5.97447 0.983817 6.95287 0.786438 8.00465 0.786438C9.17872 0.786438 10.206 1.03316 11.0621 1.55128C11.9427 2.04473 12.6276 2.76022 13.1657 3.64843V1.08251H17.2505V15.5405C17.2505 16.7248 17.0304 17.7857 16.5901 18.7479C16.1498 19.6854 15.5383 20.4996 14.7556 21.1658C13.9729 21.8319 13.0434 22.3254 11.9427 22.6955C10.842 23.0409 9.64346 23.2382 8.32263 23.2382C6.65935 23.2382 5.24068 22.9669 4.0666 22.4487C2.89252 21.9059 1.86521 21.1411 0.984648 20.1295L3.50402 17.5636C4.0666 18.2051 4.77594 18.7232 5.60758 19.118C6.43921 19.5127 7.34423 19.6854 8.29817 19.6854C8.86075 19.6854 9.39886 19.6114 9.91252 19.4387C10.4262 19.2907 10.8665 19.044 11.2578 18.7232C11.6492 18.4025 11.9672 17.983 12.1873 17.4403C12.4074 16.9221 12.5297 16.2807 12.5297 15.5652V14.0601C12.065 14.9237 11.3801 15.5898 10.4996 16.0339C9.619 16.4534 8.66507 16.6754 7.66221 16.6754ZM9.27656 12.9005C10.0104 12.9005 10.6463 12.7032 11.2089 12.2837C11.7715 11.889 12.2118 11.3709 12.5297 10.7294V7.49731C12.2118 6.65845 11.747 6.01697 11.0866 5.52352C10.4506 5.03008 9.76576 4.80803 9.03197 4.80803C8.51831 4.80803 8.05357 4.93139 7.63775 5.15344C7.22193 5.37549 6.85503 5.69623 6.56151 6.06631C6.26799 6.46107 6.02339 6.90517 5.85218 7.39862C5.68096 7.89207 5.60758 8.41018 5.60758 8.95298C5.60758 9.52044 5.70541 10.0632 5.87663 10.532C6.07231 11.0255 6.31691 11.4449 6.65935 11.7903C7.00179 12.1357 7.36869 12.4318 7.80897 12.6292C8.24925 12.8019 8.73845 12.9005 9.27656 12.9005Z" fill="currentColor"/>
    <path d="M27.9404 16.8975C26.644 16.8975 25.4944 16.6754 24.467 16.256C23.4397 15.8366 22.5592 15.2444 21.8498 14.5289C21.1405 13.7888 20.6024 12.9499 20.211 11.9877C19.8441 11.0255 19.6484 10.0386 19.6484 8.97766C19.6484 7.84273 19.8441 6.78183 20.211 5.79493C20.5779 4.80804 21.116 3.91984 21.8254 3.17967C22.5347 2.4395 23.3908 1.84736 24.4181 1.40326C25.4454 0.959158 26.6195 0.76178 27.9159 0.76178C29.2367 0.76178 30.3864 0.983831 31.4137 1.40326C32.441 1.84736 33.2971 2.41483 34.0064 3.15499C34.7158 3.89516 35.2539 4.7587 35.5963 5.72092C35.9632 6.68314 36.1344 7.6947 36.1344 8.78028C36.1344 9.05168 36.1344 9.32307 36.11 9.59447C36.0855 9.86586 36.0611 10.0879 36.0121 10.2853H24.6627C24.7361 11.3215 25.1275 12.1357 25.7879 12.6785C26.4728 13.2213 27.231 13.4927 28.0871 13.4927C28.772 13.4927 29.4324 13.32 30.0684 12.9992C30.7043 12.6538 31.1201 12.2097 31.3403 11.6423L35.3273 12.7772C34.7158 14.0108 33.7863 14.9977 32.5144 15.7625C31.2424 16.5274 29.7259 16.8975 27.9404 16.8975ZM31.1935 7.37396C31.0957 6.38707 30.7532 5.59755 30.1417 5.03009C29.5303 4.46263 28.772 4.16656 27.8914 4.16656C26.962 4.16656 26.2037 4.46263 25.6167 5.03009C25.0296 5.62223 24.6627 6.38707 24.5649 7.34929H31.1935V7.37396Z" fill="currentColor"/>
    <path d="M45.8689 16.8974C44.5481 16.8974 43.3985 16.6754 42.3712 16.256C41.3438 15.8119 40.4877 15.2444 39.7784 14.5042C39.0691 13.7641 38.5309 12.9005 38.1885 11.9383C37.8216 10.9514 37.6504 9.93985 37.6504 8.87894C37.6504 7.81803 37.8216 6.7818 38.1885 5.81957C38.5554 4.83268 39.0935 3.99382 39.7784 3.25365C40.4877 2.51349 41.3438 1.92135 42.3712 1.47725C43.3985 1.03315 44.5726 0.811096 45.8689 0.811096C47.1898 0.811096 48.3394 1.03315 49.3667 1.47725C50.394 1.92135 51.2501 2.51349 51.9594 3.25365C52.6688 3.99382 53.2069 4.85735 53.5738 5.81957C53.9407 6.80647 54.1364 7.81803 54.1364 8.87894C54.1364 9.93985 53.9652 10.9761 53.5983 11.9383C53.2314 12.9252 52.6932 13.7641 52.0084 14.5042C51.299 15.2444 50.4429 15.8365 49.4156 16.256C48.3394 16.7001 47.1898 16.8974 45.8689 16.8974ZM42.4445 8.85427C42.4445 10.0879 42.7625 11.0501 43.4229 11.7903C44.0589 12.5304 44.8905 12.9005 45.8934 12.9005C46.3826 12.9005 46.8229 12.8018 47.2387 12.6045C47.6545 12.4071 47.9969 12.1357 48.3149 11.7656C48.6084 11.4202 48.853 10.9761 49.0243 10.4826C49.1955 9.9892 49.2933 9.42173 49.2933 8.8296C49.2933 7.59598 48.9753 6.63376 48.3149 5.89359C47.679 5.15342 46.8473 4.78334 45.8689 4.78334C45.3797 4.78334 44.915 4.88203 44.4992 5.07941C44.0834 5.27678 43.7165 5.54818 43.4229 5.91826C43.1294 6.26368 42.8848 6.70778 42.7136 7.20122C42.5179 7.71934 42.4445 8.26213 42.4445 8.85427Z" fill="currentColor"/>
    <path d="M66.1941 5.1288C65.069 5.15347 64.0417 5.32618 63.1122 5.69626C62.1827 6.04167 61.5223 6.58446 61.1065 7.29996V16.6261H56.4102V1.08254H60.7151V4.21592C61.2532 3.17969 61.9136 2.34083 62.7453 1.74869C63.5769 1.15656 64.4575 0.860488 65.4114 0.835815C65.6315 0.835815 65.7783 0.835815 65.8761 0.835815C65.974 0.835815 66.0718 0.835816 66.1697 0.860488V5.1288H66.1941Z" fill="currentColor"/>
  </symbol>
</svg>
